<svg id="Layer_1" data-name="Layer 1" xmlns="http://www.w3.org/2000/svg" viewBox="0 0 368 214"><defs><style>.cls-1{fill:#2b2054;}.cls-2{fill:none;stroke:#fff;stroke-miterlimit:10;stroke-width:0.6px;}.cls-3{fill:#8dc641;}.cls-4{fill:#6abf66;}.cls-5{fill:#57b047;}.cls-6{fill:#c2db73;}.cls-7{fill:#259569;}.cls-8{fill:#6fc27d;}.cls-9{fill:#e0e77e;}.cls-10{fill:#fff;}.cls-11{fill:#ffc553;}.cls-12{fill:#ec8723;}.cls-12,.cls-13{opacity:0.5;isolation:isolate;}.cls-13{fill:#c52826;}.cls-14{fill:#fce21c;}.cls-15{fill:#8bd2d1;}.cls-16{fill:#57abdf;}.cls-17{fill:#57a4da;}.cls-18{fill:#77d2f7;}.cls-19{fill:#d1edf3;}.cls-20{fill:#8ed8f8;}.cls-21{fill:#338cc5;}.cls-22{fill:#7dcecc;}.cls-23{fill:#aadee2;}.cls-24{fill:#f6aece;}.cls-25{fill:#fdf5a9;}.cls-26{fill:#eb6092;}.cls-27{fill:#f282ae;}.cls-28{fill:#dd4c80;}.cls-29{fill:#1a74bb;fill-opacity:0.1;}.cls-30{fill:#ed5a9e;}.cls-31{fill:#f179af;}</style></defs><title>portfolio-cover</title><g id="background"><rect class="cls-1" x="-26.2" y="-25.58" width="423.04" height="264.42"/></g><rect class="cls-2" x="9.03" y="19.56" width="87.43" height="87.43"/><g id="objects"><path class="cls-3" d="M54.45,29.09a2.27,2.27,0,0,0-3.42,0L33.33,48.67a7.67,7.67,0,0,0-1.71,4.44V73.42a7.67,7.67,0,0,0,1.71,4.42L51,97.44a2.27,2.27,0,0,0,3.42,0l17.7-19.6a7.68,7.68,0,0,0,1.71-4.44V53.11a7.68,7.68,0,0,0-1.71-4.44Z"/><path class="cls-4" d="M32.84,49.33a7.81,7.81,0,0,0-1.2,3.78V73.42a7.67,7.67,0,0,0,1.69,4.42l.72.79c4.91-2.1,10.33-4.48,10.88-4.69,1-.39,0-19,0-19Z"/><path class="cls-5" d="M33.33,48.67a7,7,0,0,0-1.25,2.21l12.25,4.56,8.41-10.58V28.31a2.3,2.3,0,0,0-1.71.78Z"/><path class="cls-6" d="M61.31,55.44l12.12-4.56a7,7,0,0,0-1.25-2.21L54.45,29.09a2.3,2.3,0,0,0-1.71-.78V44.86Z"/><path class="cls-7" d="M44.17,71.11l-12,4.73a6.83,6.83,0,0,0,1.2,2L51,97.44a2.3,2.3,0,0,0,1.71.78V81.9Z"/><path class="cls-8" d="M72.16,77.84a6.85,6.85,0,0,0,1.2-2l-12-4.71L52.73,81.93V98.24a2.3,2.3,0,0,0,1.71-.78Z"/><polygon class="cls-9" points="41.82 72.04 41.82 54.49 52.75 42.41 63.67 54.49 63.67 72.04 52.75 84.13 41.82 72.04"/><path class="cls-10" d="M41.82,65.59,61.1,51.65l2.57,2.84V58L42.76,73.08l-.94-1Zm21.86-.26V62.18L45.09,75.64l1.72,1.9Z"/><path class="cls-10" d="M47.61,46.85c-2.8.91-3.53,1.65-4.44,4.45-.91-2.8-1.65-3.53-4.45-4.45,2.8-.91,3.53-1.64,4.44-4.44C44.08,45.21,44.81,45.94,47.61,46.85Z"/><path class="cls-10" d="M38.73,52.44a2.93,2.93,0,0,0-2.4,2.4,2.93,2.93,0,0,0-2.4-2.4,2.92,2.92,0,0,0,2.4-2.4A2.91,2.91,0,0,0,38.73,52.44Z"/></g><rect class="cls-2" x="183.88" y="19.57" width="87.43" height="87.43"/><g id="objects-2" data-name="objects"><path class="cls-11" d="M193.67,94.58c-1.72,0-2.4-1.2-1.56-2.71L226,33.1c.86-1.49,2.27-1.49,3.12,0L263.1,91.88c.86,1.49.16,2.71-1.56,2.71Z"/><path class="cls-12" d="M227.6,60.11V32A1.9,1.9,0,0,0,226,33.1l-17,29.39-17,29.39a1.9,1.9,0,0,0-.19,1.91L210,83.33Z"/><path class="cls-13" d="M245.18,83.33l-28.9-3.61L191.92,93.78a1.9,1.9,0,0,0,1.75.79h67.9a1.89,1.89,0,0,0,1.74-.79Z"/><polygon class="cls-14" points="210.03 83.33 227.6 52.9 245.17 83.33 210.03 83.33"/><polygon class="cls-10" points="237.73 70.44 233.64 63.37 212.9 78.36 210.03 83.33 219.9 83.33 237.73 70.44"/><polygon class="cls-10" points="241.41 76.82 239.84 74.1 227.06 83.33 232.4 83.33 241.41 76.82"/><path class="cls-10" d="M211.45,64.82c-2.8.91-3.53,1.65-4.44,4.45-.91-2.8-1.65-3.53-4.45-4.44,2.8-.91,3.54-1.64,4.45-4.44C207.92,63.18,208.65,63.92,211.45,64.82Z"/><path class="cls-10" d="M214.86,72.65a2.93,2.93,0,0,0-2.4,2.4,2.93,2.93,0,0,0-2.4-2.4,2.92,2.92,0,0,0,2.4-2.4A2.92,2.92,0,0,0,214.86,72.65Z"/><path class="cls-10" d="M223.88,88.55a2.93,2.93,0,0,0-2.4,2.4,2.93,2.93,0,0,0-2.4-2.4,2.92,2.92,0,0,0,2.4-2.4A2.88,2.88,0,0,0,223.88,88.55Z"/></g><rect class="cls-2" x="96.46" y="106.99" width="87.43" height="87.43"/><g id="objects-3" data-name="objects"><path class="cls-15" d="M131.55,132.91h15.07l5.08-12.2a6.21,6.21,0,0,0-2.28-.49H129.08a6.17,6.17,0,0,0-2.26.51Z"/><path class="cls-16" d="M121.67,143.42l10.22-10.35-5.06-12.36a6.18,6.18,0,0,0-2,1.23l-14.38,14.39a6.2,6.2,0,0,0-1.23,2Z"/><path class="cls-17" d="M109.25,163.14a6.24,6.24,0,0,0,1.2,2l14.39,14.39a6.24,6.24,0,0,0,2,1.2l4.93-11.8-10.64-10.65Z"/><path class="cls-18" d="M157.19,143l-.12,15.62,12.19,4.56a6.21,6.21,0,0,0,.51-2.26V140.54a6.21,6.21,0,0,0-.51-2.26Z"/><path class="cls-19" d="M146.62,132.54l10.82,10.64,11.84-4.9a6.2,6.2,0,0,0-1.23-2l-14.4-14.39a6.22,6.22,0,0,0-2-1.23Z"/><path class="cls-20" d="M108.76,140.53v20.35a6.21,6.21,0,0,0,.51,2.25l11.84-4.9v-15l-11.84-4.9A6.22,6.22,0,0,0,108.76,140.53Z"/><path class="cls-21" d="M129.08,181.23h20.35a6.24,6.24,0,0,0,2.25-.51l-5.2-12.43H132l-5.2,12.45A6.24,6.24,0,0,0,129.08,181.23Z"/><path class="cls-22" d="M157.06,158.07l-10.58,10.22,5.2,12.45a6.22,6.22,0,0,0,2-1.23L168,165.11a6.2,6.2,0,0,0,1.23-2Z"/><polygon class="cls-23" points="131.73 168.87 121.09 158.23 121.09 143.19 131.73 132.54 146.78 132.54 157.42 143.19 157.42 158.23 146.78 168.87 131.73 168.87"/><polygon class="cls-10" points="128.75 165.89 157.42 145.16 157.42 143.19 152.74 138.51 122.92 160.07 128.75 165.89"/><polygon class="cls-10" points="157.42 154.19 157.42 150.33 131.77 168.87 137.1 168.87 157.42 154.19"/><path class="cls-10" d="M123,136.38c-2.8.91-3.53,1.65-4.44,4.45-.91-2.8-1.65-3.53-4.45-4.44,2.8-.91,3.53-1.64,4.45-4.44C119.46,134.74,120.18,135.48,123,136.38Z"/><path class="cls-10" d="M117.32,146.7a2.93,2.93,0,0,0-2.4,2.4,2.93,2.93,0,0,0-2.4-2.4,2.92,2.92,0,0,0,2.4-2.4A2.92,2.92,0,0,0,117.32,146.7Z"/><path class="cls-10" d="M163.44,164.2a2.92,2.92,0,0,0-2.4,2.4,2.92,2.92,0,0,0-2.4-2.4,2.92,2.92,0,0,0,2.4-2.4A2.87,2.87,0,0,0,163.44,164.2Z"/></g><rect class="cls-2" x="271.54" y="107.01" width="87.43" height="87.43"/><g id="objects-4" data-name="objects"><path class="cls-24" d="M341.48,125.55a5.49,5.49,0,0,0-4.49-2.81H293.54a5.49,5.49,0,0,0-4.49,2.81L281,142.07a4.65,4.65,0,0,0,.85,5L313,177.8a3.2,3.2,0,0,0,4.45,0l31.2-30.72a4.65,4.65,0,0,0,.85-5Z"/><path class="cls-25" d="M333.47,131c-1.93-1.8-3.87-3.64-5.86-5.41l-.25-.22L296.05,148l4.76,6.61Z"/><path class="cls-25" d="M338.73,135.91l-2.15-2-36.43,26.34,1.8,2.53,36.93-26.7Z"/><path class="cls-26" d="M349.7,145.31a4.54,4.54,0,0,0-.17-3.24l-8.06-16.52a5.07,5.07,0,0,0-1.84-2l-7.31,21.18Z"/><path class="cls-26" d="M298.19,144.78l17.07-22H293.54a5.17,5.17,0,0,0-2.76,1Z"/><path class="cls-27" d="M339.77,123.7a5.17,5.17,0,0,0-2.79-1H315.26l17.07,22Z"/><path class="cls-28" d="M290.84,123.63a5,5,0,0,0-1.8,1.92L281,142.07a4.44,4.44,0,0,0-.26,2.84l17.7.47Z"/><path class="cls-29" d="M290.84,123.63a5,5,0,0,0-1.8,1.92L281,142.07a4.44,4.44,0,0,0-.26,2.84l17.7.47Z"/><path class="cls-30" d="M281.83,147.07,313,177.8a3.15,3.15,0,0,0,1.57.83l-16.38-33.84H280.68A4.36,4.36,0,0,0,281.83,147.07Z"/><path class="cls-28" d="M315.91,178.63a3.15,3.15,0,0,0,1.57-.83l31.2-30.72a4.36,4.36,0,0,0,1.15-2.3H332.32Z"/><path class="cls-29" d="M315.91,178.63a3.15,3.15,0,0,0,1.57-.83l31.2-30.72a4.36,4.36,0,0,0,1.15-2.3H332.32Z"/><path class="cls-31" d="M298.19,144.78l16.41,33.84a3.25,3.25,0,0,0,1.32,0l16.41-33.84Z"/><path class="cls-10" d="M299.35,134.87c-3,1-3.83,1.8-4.81,4.81-1-3-1.8-3.83-4.81-4.81,3-1,3.83-1.8,4.81-4.81C295.52,133.09,296.32,133.88,299.35,134.87Z"/><path class="cls-10" d="M307.6,128A3.19,3.19,0,0,0,305,130.6a3.19,3.19,0,0,0-2.62-2.61,3.19,3.19,0,0,0,2.61-2.61A3.23,3.23,0,0,0,307.6,128Z"/><path class="cls-10" d="M308.85,158.48a3.19,3.19,0,0,0-2.61,2.62,3.19,3.19,0,0,0-2.62-2.61,3.19,3.19,0,0,0,2.61-2.61A3.21,3.21,0,0,0,308.85,158.48Z"/></g></svg>