<?xml version="1.0" encoding="utf-8"?>
<!-- Generator: Adobe Illustrator 21.0.2, SVG Export Plug-In . SVG Version: 6.00 Build 0)  -->
<svg version="1.1" id="Layer_1" xmlns="http://www.w3.org/2000/svg" xmlns:xlink="http://www.w3.org/1999/xlink" x="0px" y="0px"
	 viewBox="0 0 242.5 35.9" style="enable-background:new 0 0 242.5 35.9;" xml:space="preserve">
<style type="text/css">
	.st0{fill:#FFFFFF;}
</style>
<title>r.mueller</title>
<path class="st0" d="M9.5,30h7.7c0.5,0,1,0.1,1.3,0.4c0.3,0.3,0.5,0.8,0.4,1.2c0.1,0.5-0.1,0.9-0.4,1.3c-0.4,0.3-1,0.4-1.5,0.4H1.8
	c-0.5,0-1-0.1-1.4-0.4C0.1,32.5,0,32.1,0,31.6c0-0.5,0.1-0.9,0.5-1.2C0.9,30.1,1.4,30,2,30h4V15.1H4.4c-1,0.1-1.9,0-2.8-0.4
	C1.2,14.4,1,13.9,1,13.4c0-0.4,0.1-0.9,0.4-1.2c0.4-0.3,0.9-0.4,1.4-0.4h5.3c0.4,0,0.7,0.1,1,0.2c0.2,0.2,0.3,0.4,0.3,0.7v4
	c1.3-1.7,2.8-3.1,4.6-4.1c1.6-0.9,3.4-1.4,5.2-1.4c1.2-0.1,2.3,0.2,3.4,0.8c0.8,0.4,1.3,1.3,1.3,2.1c0,0.6-0.2,1.1-0.6,1.5
	c-0.4,0.4-0.9,0.6-1.4,0.7c-0.6-0.1-1.3-0.3-1.8-0.7c-0.7-0.4-1.5-0.7-2.3-0.7c-1.4,0.1-2.7,0.5-3.8,1.3c-1.7,1.2-3.2,2.5-4.4,4.1
	V30z"/>
<path class="st0" d="M35.8,29.5c0-1.1,0.4-2.2,1.3-3c0.9-0.8,2.1-1.2,3.3-1.2c1.2-0.1,2.4,0.3,3.3,1.1c1.7,1.6,1.7,4.3,0.1,5.9
	c0,0,0,0-0.1,0.1c-1.9,1.5-4.7,1.5-6.6,0C36.2,31.7,35.7,30.6,35.8,29.5z"/>
<path class="st0" d="M77.6,20.4c0.1-1.5-0.1-3-0.6-4.4c-0.4-0.7-1.2-1.2-2-1.1c-1.1,0-2.1,0.5-2.7,1.5c-0.7,1.2-1.1,2.7-1,4.1V30
	h0.4c0.6-0.1,1.3,0.1,1.9,0.3c0.4,0.3,0.5,0.8,0.5,1.3c0,0.5-0.1,0.9-0.4,1.3c-0.3,0.3-0.8,0.5-1.2,0.4h-3c-0.5,0.1-1-0.1-1.4-0.5
	c-0.3-0.6-0.4-1.3-0.4-2V18.5c0.1-1-0.2-2-0.8-2.8c-0.5-0.7-1.3-1-2.2-1c-0.7,0-1.4,0.2-1.9,0.6c-0.6,0.5-1.2,1.1-1.5,1.8v12.8h0.9
	c0.6-0.1,1.3,0.1,1.9,0.4c0.4,0.3,0.5,0.8,0.5,1.3c0.1,0.5-0.1,0.9-0.4,1.3c-0.4,0.3-1,0.4-1.5,0.4h-6.2c-0.5,0-1-0.1-1.3-0.4
	c-0.3-0.3-0.5-0.8-0.4-1.3c-0.1-0.5,0.1-1,0.5-1.3c0.7-0.3,1.4-0.4,2.1-0.3h0.5V15.1h-0.4c-0.8,0.1-1.5-0.1-2.2-0.4
	c-0.4-0.3-0.6-0.8-0.6-1.3c0-0.5,0.1-0.9,0.5-1.2c0.4-0.3,0.9-0.4,1.4-0.4H60c0.4,0,0.7,0.1,1,0.3c0.2,0.3,0.3,0.7,0.3,1.1
	c0.6-0.6,1.3-1.1,2.1-1.5c0.8-0.3,1.6-0.5,2.5-0.5c0.9,0,1.9,0.2,2.7,0.7c0.7,0.5,1.3,1.3,1.6,2.1c0.6-0.9,1.3-1.6,2.3-2.1
	c0.9-0.5,1.9-0.7,2.9-0.7c1.7-0.1,3.4,0.6,4.4,2c0.9,1.3,1.4,3.4,1.4,6.3v10.5h0.4c0.7-0.1,1.3,0.1,1.9,0.4c0.4,0.3,0.5,0.8,0.5,1.3
	c0,0.5-0.1,0.9-0.4,1.3c-0.3,0.3-0.8,0.5-1.2,0.4h-2.8c-0.5,0-1-0.2-1.4-0.6c-0.3-0.5-0.5-1.1-0.4-1.8L77.6,20.4z"/>
<path class="st0" d="M91.7,24.7c-0.1,1.5,0.3,3.1,1.2,4.3c1.1,1,2.5,1.5,3.9,1.4c1.6,0,3.2-0.5,4.3-1.6c1.2-1,1.8-2.5,1.8-4v-9.6
	h-3.2c-0.5,0-0.9-0.1-1.3-0.4c-0.3-0.3-0.4-0.8-0.4-1.2c0-0.5,0.1-0.9,0.4-1.3c0.4-0.3,0.9-0.5,1.4-0.4h5c0.4,0,0.9,0.1,1.2,0.4
	c0.3,0.6,0.4,1.2,0.4,1.9v16h1.1c0.6,0,1.1,0.1,1.6,0.4c0.4,0.3,0.5,0.8,0.5,1.2c0,0.5-0.1,0.9-0.5,1.3c-0.4,0.3-0.9,0.5-1.4,0.4
	h-3.6c-0.4,0-0.7-0.1-1-0.3c-0.2-0.2-0.4-0.4-0.4-0.7v-1.7c-1.2,1-2.5,1.7-3.8,2.4c-1.1,0.4-2.2,0.6-3.4,0.6c-2.6,0-4.5-0.7-5.8-2
	s-1.9-3.4-1.9-6.2V15.1h-0.5c-0.7,0.1-1.5-0.1-2.2-0.4c-0.4-0.3-0.6-0.8-0.6-1.3c0-0.4,0.1-0.9,0.4-1.2c0.4-0.3,0.9-0.4,1.4-0.4h3.6
	c0.4,0,0.8,0.1,1.1,0.3c0.3,0.4,0.4,0.9,0.3,1.4L91.7,24.7z"/>
<path class="st0" d="M118.2,23.6c0,2,0.8,3.8,2.3,5.1c1.6,1.3,3.6,1.9,5.7,1.8c2.1-0.1,4.1-0.6,5.9-1.4c1.2-0.6,2.5-1.1,3.9-1.4
	c0.4,0,0.8,0.1,1.2,0.4c0.3,0.3,0.5,0.7,0.5,1.1c0,0.5-0.2,0.9-0.5,1.2c-0.4,0.5-1,0.8-1.6,1.1c-1.5,0.7-3.1,1.3-4.8,1.7
	c-1.6,0.4-3.3,0.6-4.9,0.6c-3.1,0.2-6.2-1-8.5-3.1c-2.2-2.1-3.3-5.1-3.2-8.1c-0.1-3.1,1.1-6.2,3.4-8.3c2.4-2.2,5.6-3.3,8.8-3.2
	c3-0.1,5.9,1,8.1,3c2.1,1.8,3.3,4.5,3.2,7.2c0.1,0.6-0.1,1.3-0.5,1.7c-0.9,0.4-2,0.6-3,0.4L118.2,23.6L118.2,23.6z M118.4,20.6h15.1
	c-0.2-1.7-1-3.3-2.3-4.4c-1.3-1.1-3.1-1.7-4.8-1.7c-1.9-0.1-3.7,0.5-5.2,1.6C119.7,17.2,118.7,18.8,118.4,20.6L118.4,20.6z"/>
<path class="st0" d="M149.5,33.9c-0.2,0.6-0.6,1.1-1,1.6c-0.3,0.3-0.7,0.4-1.1,0.4c-0.4,0-0.8-0.2-1.1-0.5c-0.3-0.3-0.5-0.7-0.5-1.1
	c0-0.1,0-0.3,0.1-0.4c0.1-0.2,0.1-0.4,0.2-0.5l14.5-31.3c0.2-0.6,0.6-1.1,1-1.6c0.3-0.3,0.7-0.4,1.1-0.4c0.4,0,0.9,0.2,1.2,0.5
	c0.3,0.3,0.5,0.7,0.5,1.1c0,0.1,0,0.3-0.1,0.4c0,0.2-0.1,0.3-0.2,0.4L149.5,33.9z"/>
<path class="st0" d="M168,33.9c-0.2,0.6-0.6,1.1-1,1.6c-0.3,0.3-0.7,0.4-1.1,0.4c-0.4,0-0.8-0.2-1.1-0.5c-0.3-0.3-0.5-0.7-0.5-1.1
	c0-0.1,0-0.3,0.1-0.4c0.1-0.2,0.1-0.4,0.2-0.5L179,2.1c0.2-0.6,0.6-1.1,1-1.6c0.3-0.3,0.7-0.4,1.1-0.4c0.4,0,0.9,0.2,1.2,0.5
	c0.3,0.3,0.5,0.7,0.5,1.1c0,0.1,0,0.3-0.1,0.4c0,0.2-0.1,0.3-0.2,0.4L168,33.9z"/>
<path class="st0" d="M193.9,23.6c0,2,0.8,3.8,2.3,5.2c1.6,1.3,3.6,1.9,5.7,1.8c2.1-0.1,4.1-0.6,5.9-1.4c1.2-0.6,2.5-1.1,3.9-1.4
	c0.4,0,0.8,0.1,1.2,0.4c0.3,0.3,0.5,0.7,0.5,1.1c0,0.5-0.2,0.9-0.5,1.2c-0.4,0.5-1,0.8-1.6,1.1c-1.5,0.7-3.1,1.3-4.8,1.7
	c-1.6,0.4-3.3,0.6-4.9,0.6c-3.1,0.2-6.2-1-8.5-3.1c-2.2-2.1-3.3-5.1-3.2-8.1c-0.1-3.1,1.1-6.2,3.4-8.3c2.4-2.2,5.6-3.3,8.8-3.2
	c3-0.1,5.9,1,8.1,3c2.1,1.8,3.3,4.5,3.2,7.2c0.1,0.6-0.1,1.3-0.5,1.7c-0.9,0.4-2,0.6-3,0.4L193.9,23.6L193.9,23.6z M194,20.6h15.1
	c-0.2-1.7-1-3.3-2.3-4.4c-1.3-1.1-3.1-1.7-4.8-1.7c-1.9-0.1-3.7,0.5-5.2,1.6C195.4,17.2,194.4,18.8,194,20.6L194,20.6z"/>
<path class="st0" d="M228.1,30h7.7c0.5,0,1,0.1,1.3,0.4c0.3,0.3,0.5,0.8,0.4,1.2c0.1,0.5-0.1,0.9-0.4,1.3c-0.4,0.3-1,0.4-1.5,0.4
	h-15.2c-0.5,0-1-0.1-1.4-0.4c-0.3-0.3-0.5-0.8-0.5-1.3c0-0.5,0.1-0.9,0.5-1.2c0.4-0.3,1-0.4,1.5-0.4h4V15.1H223
	c-1,0.1-1.9,0-2.8-0.4c-0.4-0.3-0.6-0.8-0.6-1.3c0-0.4,0.1-0.9,0.5-1.2c0.4-0.3,0.9-0.4,1.4-0.4h5.3c0.4,0,0.7,0.1,1,0.2
	c0.2,0.2,0.3,0.4,0.3,0.7v4c1.3-1.7,2.8-3.1,4.6-4.1c1.6-0.9,3.4-1.4,5.2-1.4c1.2-0.1,2.3,0.2,3.4,0.8c0.8,0.4,1.3,1.3,1.3,2.1
	c0,0.6-0.2,1.1-0.6,1.5c-0.4,0.4-0.9,0.6-1.4,0.7c-0.6-0.1-1.3-0.3-1.8-0.7c-0.7-0.4-1.5-0.7-2.3-0.7c-1.4,0.1-2.7,0.5-3.8,1.3
	c-1.7,1.2-3.2,2.5-4.5,4.1L228.1,30z"/>
</svg>
