<svg id="ryan_Signature_Image" data-name="ryan_Signature Image" xmlns="http://www.w3.org/2000/svg" viewBox="0 0 237.32 109.41"><defs><style>.cls-1{fill:#fff;}</style></defs><title>ryan_Signature</title><path class="cls-1" d="M84.18,7.27c.08-.16.1-.32-.09-.4s-.2.06-.3.09l.4.3a.79.79,0,0,1-.17.14c-.13.06-.36.07-.4.15-.1.26-.29.16-.44.16s-.31-.07-.47-.06a1.31,1.31,0,0,1-1.25-.38.45.45,0,0,0-.27-.11,4,4,0,0,1-.69-.08c-.3-.1-.4.21-.63.25-.07,0-.09.25-.14.41a2.34,2.34,0,0,1-2.63-.07,6.16,6.16,0,0,1-.75.51,2.58,2.58,0,0,1-.59.1c-.21,0-.41.12-.61.16a3.44,3.44,0,0,0-.7.09,1.15,1.15,0,0,1-.9-.06c-.32-.11-.27-.41-.46-.57-.18,0-.38.12-.52.07a1,1,0,0,0-.74,0,1.79,1.79,0,0,0-1.1.73c0,.06-.21.13-.24.1-.2-.16-.27.06-.4.11a4.09,4.09,0,0,1-1,.29c-.17,0-.36-.17-.53-.26l.3-.28c-1-.2-1.14-.12-1,.4l-.35.09c-.16-.17-.27-.38-.39-.38a2.24,2.24,0,0,0-.68.19l.51.25c-.22.34-.42.18-.61.1l-.11-.65c-.46.26-.15.48-.05.65a.55.55,0,0,1-.72.4c-.31-.18-.47,0-.72.13l-.12-.36,1.17-.31c-.41-.41-.9-.18-1.34-.25a1.3,1.3,0,0,0-.67.12,10.18,10.18,0,0,1-1.26.26c-.39.11-.81.13-1.21.21a1.77,1.77,0,0,0-.36.17l.49.38,0,.12c-.31-.07-.64-.31-.86-.06l-.85-.47-.17.33a8.77,8.77,0,0,0-.94,0c-.22,0-.44.13-.66.18a8.65,8.65,0,0,0-1.1.23c-.57.21-.65.29-1.09.23s-.7,0-1,0-.66.23-1,.44l.55.45-.71.07-.28-.4a2,2,0,0,1-.55.17c-.35,0-.71-.18-1.05,0-.44-.22-.54.13-.69.41a1.67,1.67,0,0,1-.2.29s-.1,0-.19,0l-.15-.43L48.52,12l.25.54c-.74,0-1.36.38-2,.17a.31.31,0,0,0-.22,0,.42.42,0,0,1-.54-.09.61.61,0,0,0-.41-.17c-.44.09-.86.23-1.38.37l.53.38c-.23.12-.41.28-.63.12a5.55,5.55,0,0,1-.54-.5l-.07.55-.15,0c-.47.16-.93.36-1.36-.09,0,0-.18,0-.27,0l.08.38h-.45l-.09-.38-1.69.4c-.08.54-.08.54-.56.57l0-.26c-.22.12-.42.32-.57.29s-.24-.3-.37-.47l-.65.17.16.5a1.66,1.66,0,0,0-1.39-.1,1.73,1.73,0,0,1-.63.06c-.34,0-.69-.21-.93.22,0,0-.14,0-.22.07-.41.09-.86,0-1.22.33-.06.05-.2,0-.29,0s-.32.11-.48.14c-.51.08-.94.61-1.52.23,0,0-.1,0-.15.06l-.45.2.16.27-.06,0L30,15.8,29,16.47c-.15-.24-.41-.42-.67-.23a.68.68,0,0,1-.67,0,1.08,1.08,0,0,0-.81.09l-.6.29a12.31,12.31,0,0,1-2.4.77c-.7.2-1.5,0-2.11.55a.68.68,0,0,1-.28.08c-.09,0-.21,0-.27.07a3.74,3.74,0,0,1-1.71.57,6.11,6.11,0,0,0-2.14.54,1.19,1.19,0,0,1-.4.1c-.1,0-.22,0-.29.05-.52.44-1.23.35-1.8.67a3.91,3.91,0,0,1-.82.32c-.66.2-1.35.33-2,.58-.35.14-.72.2-1,.37a10.59,10.59,0,0,1-1.7.68c-.34.1-.69.14-1,.23a10.76,10.76,0,0,0-1.49.68c-.12.06-.26.08-.39.13a10.09,10.09,0,0,0-1.49.57,6.68,6.68,0,0,0-2.05,1.71,1.89,1.89,0,0,0-.3.48,12.8,12.8,0,0,1-.48,1.41,6.27,6.27,0,0,0-.26,4.24c.15.62.32,1.23.49,1.84a2.17,2.17,0,0,0,.2.55c.29.47.6.92.9,1.39.13.19.23.4.36.59s.33.4.46.62a1.81,1.81,0,0,0,.68.73,1.32,1.32,0,0,1,.35.39c.19.25.31.59.55.76a2,2,0,0,1,.72,1,.78.78,0,0,0,.76.56,2.2,2.2,0,0,1,.56.19l.59.17a12.07,12.07,0,0,1,0-1.62,1.7,1.7,0,0,0-.2-1.14,7.4,7.4,0,0,1-.48-1.19,4.59,4.59,0,0,0-1.19-1.83A4.76,4.76,0,0,1,5.4,32.68,1.36,1.36,0,0,1,5.68,31a1,1,0,0,0,.23-.39,3.65,3.65,0,0,1,.19-.53,2.57,2.57,0,0,1,1.4-1c.62-.21.74-.54.45-1.19l.66-.35c.15-.08.31-.13.47-.2l1.4-.6a2.67,2.67,0,0,0,.71-.29A4.15,4.15,0,0,1,13,25.52c.47-.11.87-.47,1.33-.6a4.14,4.14,0,0,1,1.34-.41,1.78,1.78,0,0,0,.66-.23c.15-.06.28-.15.43-.2l1.91-.57A2.46,2.46,0,0,0,19.93,23a.53.53,0,0,1,.33-.09,8.26,8.26,0,0,0,1.17-.18A3.46,3.46,0,0,0,23,22.21c.28-.21.61-.08.9-.16A16.27,16.27,0,0,0,26,21.32a1.92,1.92,0,0,1,1.15,0l1-.74a3.62,3.62,0,0,0,.77.06c.67-.09,1.33-.22,2-.35a6.55,6.55,0,0,0,1.59-.3,8.09,8.09,0,0,1,1.17-.48c1.17-.34,2.35-.63,3.54-.93.68-.17,1.39-.21,2.06-.45a8.13,8.13,0,0,1,1.14-.29c.23,0,.47,0,.7,0,.57-.1,1.12-.25,1.69-.33a2.06,2.06,0,0,1,.86,0,.75.75,0,0,0,1-.23,1.83,1.83,0,0,1,.25-.16,7.42,7.42,0,0,1,2.71-.87c.71-.16,1.45-.13,2.17-.25a1.05,1.05,0,0,1,1,.31,1.1,1.1,0,0,0,.36.16c.12-.4.43-.09.66-.18l0-.49a7.1,7.1,0,0,1,2.39.7c-.17-.41-.08-.63.27-.75a.68.68,0,0,0,.34-.32.9.9,0,0,1,.6-.42A9.4,9.4,0,0,1,58,14.63l.95-.09c.5-.06,1-.14,1.51-.19a1.58,1.58,0,0,0,.77-.23A1.17,1.17,0,0,1,62.64,14c.08.05.2.13.27.11s.37-.16.36-.23c-.07-.54.25-.4.54-.34A2,2,0,0,0,65,13.48a9.29,9.29,0,0,1,1.89-.42,12.42,12.42,0,0,1,1.75-.2,2.82,2.82,0,0,1,1.19.2.56.56,0,0,0,.64,0c.21-.16.41-.34.7-.58a1.53,1.53,0,0,1,1.68.39,2.26,2.26,0,0,1,1.48-.78c.43-.07.92,0,1.3-.3a.18.18,0,0,1,.11,0,11.47,11.47,0,0,1,1.86.07,1.07,1.07,0,0,0,.64,0,1.36,1.36,0,0,1,1.09-.15,2.21,2.21,0,0,1,.34.06.53.53,0,0,0,.67-.24,3.51,3.51,0,0,0,.23-.45,1,1,0,0,0,.92.24,2.49,2.49,0,0,1,1.66,0l.65.34a1.52,1.52,0,0,0,.06-.26c0-.45,0-.45.51-.43a.76.76,0,0,0,.23,0,7.65,7.65,0,0,1,2.91,0c.22-.16.39-.37.59-.42.5-.11,1-.14,1.56-.21,0,.23,0,.49,0,.75l-.47-.36-.18.31c.23.28.44.15.64,0l.62.19c.06-.17.09-.31.15-.45s.09-.26.16-.29a3.09,3.09,0,0,1,1-.2,1.31,1.31,0,0,0,.61-.06A2.14,2.14,0,0,1,93.51,10c.62.1.63.06.68.67a.66.66,0,0,0,.87,0c.25-.17.57-.25.69-.59,0-.08.18-.14.29-.18a1.32,1.32,0,0,1,.89-.13c.63-.35,1.32-.15,2-.24.21.21.29.62.75.49,0-.45.28-.59.69-.61s1-.08,1.54-.1.63.05.59.6c0,.28.12.39.32.4a1.81,1.81,0,0,0,1-.2c.19-.12.4-.2.58-.28-.3-.17-.05-.39,0-.64.23,0,.52.18.59.11.31-.3.64-.11,1-.12a4.69,4.69,0,0,0,.93-.12,8.14,8.14,0,0,1,2-.23h1.28c.69,0,1.37-.07,2.05-.12a4.42,4.42,0,0,1,2,.14.53.53,0,0,0,.28,0,6.58,6.58,0,0,1,1.6-.25,2.75,2.75,0,0,0,1.41,0s.11,0,.17,0l.58,0c.38,0,.77-.29,1.14,0a.12.12,0,0,0,.11,0c.47-.31,1-.08,1.49-.14a7,7,0,0,1,1.5.15.88.88,0,0,1,.77-.2,5.09,5.09,0,0,0,.57-.07c.53,0,1.06,0,1.59,0,.14,0,.3.16.43.13a1.31,1.31,0,0,1,.91.21c.24.14.46.17.65,0a.71.71,0,0,1,.71-.21c.49.08,1-.16,1.47.09.51-.29,1.05,0,1.58-.07L133,8.48a1.9,1.9,0,0,1,1.09.19.81.81,0,0,0,.57.09,2.15,2.15,0,0,1,1.44,0c.05,0,.14,0,.17,0,.36-.27.72-.05,1.07,0a3,3,0,0,0,1.64-.06,1.69,1.69,0,0,1,1.33.11l.43.21a1.55,1.55,0,0,1,1.45-.26,10.67,10.67,0,0,0,1.66.14,5.3,5.3,0,0,1,2.58.35c.06,0,.17,0,.26,0a1.9,1.9,0,0,1,.26-.11,4,4,0,0,1,1.8.15,7.53,7.53,0,0,1,.71.27s.06.09.1.16l-.36.31.85.35c0-.18.07-.38,0-.44a.36.36,0,0,1-.06-.55c.14-.18.34-.1.54-.05a5.65,5.65,0,0,0,1,.1,4.36,4.36,0,0,1,1.06,0,7.5,7.5,0,0,0,1.28.21,2.84,2.84,0,0,0,.85,0,1.27,1.27,0,0,1,.81,0,1.64,1.64,0,0,0,.52.09c.53,0,1.08-.11,1.56.23a.34.34,0,0,0,.18,0,9.77,9.77,0,0,1,1,0c.49.05,1,.17,1.47.22a11.31,11.31,0,0,1,2.43.38,1.66,1.66,0,0,0,.35,0c.67.07,1.34.14,2,.22a4.09,4.09,0,0,0,.8.16,6.75,6.75,0,0,1,1.92.17,3,3,0,0,0,.7.07,2.26,2.26,0,0,1,1.57.31.51.51,0,0,0,.26.08c.63,0,1.26,0,1.88.12.41,0,.8.22,1.21.28,1,.14,2,.24,3,.36l.18,0c.56.13,1.12.25,1.67.39,1.06.27,2.15.29,3.21.56.68.17,1.39.25,2.09.37.4.07.81.12,1.21.21s.49.16.74.21l1.45.31c.42.08.85.14,1.27.22a7.9,7.9,0,0,1,.8.21,4.64,4.64,0,0,0,1.17.37,6.74,6.74,0,0,1,1.22.33c.09,0,.18.08.27.1.44.09.89.14,1.32.25a9.34,9.34,0,0,0,1.51.44,9.82,9.82,0,0,1,2.89.77,5.75,5.75,0,0,1,.74.19,4.72,4.72,0,0,0,1.48.55,9.63,9.63,0,0,1,1.06.25c.55.17,1.09.37,1.63.56.86.31,1.7.64,2.57.92a6.37,6.37,0,0,1,1.69.74,2.18,2.18,0,0,0,.37.19,4.7,4.7,0,0,1,1.7.82.41.41,0,0,0,.15.09,6.06,6.06,0,0,1,2,1.14,2,2,0,0,0,.57.41A8,8,0,0,1,213.8,25a4.53,4.53,0,0,1,.65.75c.28.4.49.85.77,1.25a2.06,2.06,0,0,1,.41,1.5,1.85,1.85,0,0,1-.29.89,3.8,3.8,0,0,0-.22.35c0,.05-.45.85-.49.88a2.37,2.37,0,0,0-.74.81c-.16.32-.59.52-.89.77a1.54,1.54,0,0,0-.2.22,3.33,3.33,0,0,1-2.16,1.37.67.67,0,0,0-.55.48,2.1,2.1,0,0,1-1.36,1.13,5.43,5.43,0,0,0-1.5.6c-.27.2-.55.37-.86.57l-.31-.33-1.58.66-.06.35a.77.77,0,0,0-.27,0l-1.52.89c-.08,0-.18.13-.26.12a1.29,1.29,0,0,0-1.14.47,1.62,1.62,0,0,1-.93.46,8.6,8.6,0,0,0-1.94.62c-.61.27-1.24.49-1.86.74a.33.33,0,0,1-.11,0,3.83,3.83,0,0,0-1.44.49,3.84,3.84,0,0,1-1.88.41c-.16.19-.3.39-.62.34a1.53,1.53,0,0,0-.63.16c-.57.2-1.13.41-1.7.6s-1,.32-1.57.46a3.72,3.72,0,0,1-1.08.25,3.55,3.55,0,0,0-2,.47c-.69.4-1.51.4-2.21.74-.65-.12-1.16.39-1.83.36s-1.18.44-1.84.44c0,0-.07,0-.1.06-.2.06-.41.11-.62.16s-.32,0-.47.06l-1.34.35a.37.37,0,0,1-.27-.05.38.38,0,0,0-.49,0,4.7,4.7,0,0,1-1.86.55,9.22,9.22,0,0,0-1.73.3,2.29,2.29,0,0,1-.35,0c-.21,0-.42.05-.63.1a3.2,3.2,0,0,1-.51.17,2.09,2.09,0,0,0-1.39.51.94.94,0,0,1-.39.14c-.9.25-1.82.38-2.72.65a16,16,0,0,1-2.51.35,2.37,2.37,0,0,0-.63.1,8.92,8.92,0,0,1-2.23.63c-.81.12-1.61.31-2.41.47-.07,0-.14.08-.21.1l-.5.1a1.86,1.86,0,0,0-.47.05,6.72,6.72,0,0,1-2,.34l-2.28.31c-.08,0-.14.12-.22.16a1.46,1.46,0,0,1-.41.17,5,5,0,0,0-.8.07,3.92,3.92,0,0,1-1.48.17,3.87,3.87,0,0,0-1,.11c-.48.1-1,.29-1.44.37a3.33,3.33,0,0,1-1.48.19c-.41-.11-.83.23-1.29.17a2.13,2.13,0,0,0-.81.12,8.67,8.67,0,0,1-2.09.51,8.66,8.66,0,0,0-1.88.49,1.77,1.77,0,0,1-.33.12c-.75,0-1.49.09-2.24.1a2.61,2.61,0,0,0-1.42.27,1.82,1.82,0,0,1-.75.1c-.19,0-.38,0-.57,0s-.42.1-.64.13c-.39.06-.79.08-1.18.14-.77.13-1.55.26-2.31.43a9.71,9.71,0,0,1-2.72.32c-.34,0-.67.13-1,.12a8,8,0,0,0-1.66.19,5.44,5.44,0,0,0-1.42.38,2.29,2.29,0,0,1-1.19.21,4.15,4.15,0,0,0-.71,0c-.37,0-.74.14-1.11.17a1,1,0,0,0-.8.33,1,1,0,0,1-.74.31c-.47,0-.94.07-1.41.14s-.55,0-.69-.35-.25-1-.36-1.43a1.21,1.21,0,0,1-.08-.58,1.69,1.69,0,0,0-.09-1.1.53.53,0,0,1,0-.29,1.62,1.62,0,0,0-.21-1.19,1.8,1.8,0,0,1-.13-.51,3.36,3.36,0,0,0-.06-.81,5.81,5.81,0,0,1-.31-1.85,11.67,11.67,0,0,1-.16-1.34c0-.53-.11-1-.07-1.59a13.44,13.44,0,0,0-.23-2.32.5.5,0,0,1,0-.23c.3-.74,0-1.5.07-2.24.06-.39,0-.79.08-1.17a8.53,8.53,0,0,0,.23-1.4,8.58,8.58,0,0,0-.33-1.8c-.1-.38-.36-.71-.17-1.14,0-.07-.05-.18-.08-.28-.22-.61-.74-.74-1.3-.89a.76.76,0,0,0-.85.21,1.05,1.05,0,0,0-.4.94,1.18,1.18,0,0,1-.14.57,5.93,5.93,0,0,0-.25,2.13c0,.67,0,1.34,0,2s0,1.14,0,1.71c0,.42.08.83.1,1.25s0,.54,0,.81a14.15,14.15,0,0,1,.24,2.46.77.77,0,0,0,.06.29c.07.27.16.53.2.81.21,1.42.41,2.85.62,4.28a18,18,0,0,1,.33,3.17,1.56,1.56,0,0,0,.05.35c.1.49.21,1,.29,1.46,0,.14,0,.37-.09.43a2.83,2.83,0,0,1-.89.44c-.69.16-1.4.24-2.09.39a11.09,11.09,0,0,0-1.12.37c-.09,0-.2.11-.27.08-.55-.2-1,.2-1.51.27a6.47,6.47,0,0,1-1.85.31,1.09,1.09,0,0,0-.46.07,17.32,17.32,0,0,0-3.2,1.1s-.12,0-.18,0a2.71,2.71,0,0,0-.87.33,1.48,1.48,0,0,0-.71,1.46,7.34,7.34,0,0,1,.12,2c-.07.69.32,1,.76,1.31.22.16.46.31.67.5a1.17,1.17,0,0,0,.92.34c.65-.07,1.29-.15,1.93-.27,1.24-.22,2.46-.51,3.71-.67a15.84,15.84,0,0,1,2.3-.48.24.24,0,0,0,.16-.07.8.8,0,0,1,.88-.17,1.07,1.07,0,0,0,.48,0c.58-.13,1.18.08,1.75-.14a.36.36,0,0,1,.22,0l.7.92a5.34,5.34,0,0,0-.15,1,.86.86,0,0,1-.46.82.93.93,0,0,0-.53.88c0,.22-.13.31-.25.44-.27.29-.34,1.05-.07,1.27a1.58,1.58,0,0,1,.48.72.46.46,0,0,0,.18.23,9.51,9.51,0,0,0,1.07.53,1.64,1.64,0,0,0,1.31-.37A24.22,24.22,0,0,0,119,68.2a.26.26,0,0,0,0-.12c0-.55,0-1.1-.06-1.65a5.11,5.11,0,0,1,.18-2.41c0-.08,0-.21-.06-.33a2.31,2.31,0,0,1,.61-.27c.77-.09,1.45-.48,2.23-.54a17.75,17.75,0,0,0,2.15-.41l1.58-.3,3-.61c.06-.49.31-.79.87-.71a.66.66,0,0,0,.29-.06l1.44-.53a.32.32,0,0,1,.23,0,1.62,1.62,0,0,0,1.05,0c.25,0,.5,0,.69,0l.28.43.31-.22a2.53,2.53,0,0,1,.6-.46,8,8,0,0,1,1.38-.33c.44-.07.91.16,1.33-.14,0,0,.11,0,.17,0a4.82,4.82,0,0,0,.58,0,6.84,6.84,0,0,0,1.48,0c.25-.06.58.17.88.28,0-.06,0-.17.09-.23a1.32,1.32,0,0,1,1.26,0c.38.27.43.26.79,0a2.15,2.15,0,0,1,.42-.2l.1.44.26-.39c.23,0,.43,0,.63,0,.49,0,1-.14,1.46-.15.7,0,1.41.1,2.09,0a2.16,2.16,0,0,1,1.79.86,13.35,13.35,0,0,1,1.33,1.8,6.78,6.78,0,0,0,1.8,1.88c.17.11.29.31.44.45s.32.33.47.31a1.49,1.49,0,0,1,1.22.62,1.29,1.29,0,0,0,1.24.43c.14.36.38.53.77.35s.42,0,.53.24a2.14,2.14,0,0,1,.11.47l.52.26a.86.86,0,0,1,1.14.06,1.53,1.53,0,0,0,.42.22c.42.13.84.23,1.25.38a2.49,2.49,0,0,1,.72.38c.29.24.59.45.9.66a35.83,35.83,0,0,0,3.67,2.09,6.29,6.29,0,0,1,1.09.6c.56.44,1.24.68,1.8,1.12a6.94,6.94,0,0,1,.82.56,4.29,4.29,0,0,0,1.09.81c.19.1.36.3.55.31a1.36,1.36,0,0,1,1,.61,1.75,1.75,0,0,0,1,.67,1.4,1.4,0,0,1,.68.34,4.05,4.05,0,0,0,1.15.83,1.4,1.4,0,0,1,.35.32,6.08,6.08,0,0,0,2.18,1.49,1.86,1.86,0,0,1,.72.49,3.06,3.06,0,0,0,.92.73,1.28,1.28,0,0,1,.41.32,5.71,5.71,0,0,0,1.07,1.18c.33.23.5.65.87.84a4.53,4.53,0,0,1,.94.78,5.41,5.41,0,0,1,.72.84,3.56,3.56,0,0,0,.49.43,4.85,4.85,0,0,1,1.15,1.09c.27.5.72.79,1,1.26a9.36,9.36,0,0,0,1.1,1.29.22.22,0,0,1,.06.16c-.1.36.13.57.32.83a12.67,12.67,0,0,1,.86,1.45c.26.49.5,1,.73,1.51a6.1,6.1,0,0,1,.28.82,3.75,3.75,0,0,0,.14.63,6.44,6.44,0,0,1,.6,2,6.17,6.17,0,0,1,.15,2.23c-.12.56-.11,1.14-.22,1.7a7.92,7.92,0,0,1-.94,2.61c-.23.39-.28.89-.74,1.13a.32.32,0,0,0-.12.19,3.79,3.79,0,0,1-1.37,1.73,8.86,8.86,0,0,1-1.59,1c-.07,0-.18,0-.21.09a2.24,2.24,0,0,1-1.39.88,13.22,13.22,0,0,1-1.46.53c-.34.07-.52.35-.81.45-.45.16-.92.28-1.41.42l.56.5a1,1,0,0,1-.08.2c-.4.52-1,.4-1.52.39a1.89,1.89,0,0,0-1.12.24,1.91,1.91,0,0,1-1.38.2c-.11,0-.25-.13-.33-.1a1.53,1.53,0,0,1-1.09-.14,1.51,1.51,0,0,0-1.19-.06,1,1,0,0,1-.56,0,2.16,2.16,0,0,0-1,0,14,14,0,0,0-1.77.49c-.23.07-.49,0-.71.14-.24-.25-.53-.06-.79-.09-.45,0-.9-.1-1.36-.1s-.62-.17-1,0c-.09,0-.23,0-.34-.05-.54-.11-1.08-.26-1.62-.31a6.37,6.37,0,0,0-2.11-.05l-1.47-.34a8.87,8.87,0,0,1-1.12-.22c-.69-.24-1.35-.56-2-.82-.35-.13-.72-.2-1.08-.29a9.79,9.79,0,0,0-1-.26,13.67,13.67,0,0,1-1.53-.2,21,21,0,0,1-2.9-1.31,1.76,1.76,0,0,1-.19-.15c-.2-.13-.39-.26-.6-.37a5.24,5.24,0,0,1-1.36-.72c-.37-.36-.9-.48-1.27-.92a9.19,9.19,0,0,1-1.85-2.19c-.16-.37-.53-.68-.62-1.05a3.46,3.46,0,0,1-.2-1.69c.08-.32.09-.66.14-1a3.23,3.23,0,0,1,.15-.68c.19-.47.39-.94.62-1.4a2.07,2.07,0,0,1,.53-.83,3,3,0,0,0,.66-.8c.45-.57,1-1.1,1.45-1.63s.91-.91,1.37-1.36c0,0,0,0,0,0s-.09,0-.11,0c-.52.39-1.2.59-1.47,1.27a.2.2,0,0,1-.13.12c-.38.06-.59.38-.88.57s-.33.17-.6.3c0-.35,0-.62.06-.75a6.16,6.16,0,0,1,1-1.07,13.38,13.38,0,0,0,1.34-1.09,7,7,0,0,1,.71-.78c.39-.29.9-.43,1.16-.89.51,0,.7-.45,1-.77a1.08,1.08,0,0,1,.24-.16,4,4,0,0,0,1.62-2.05,2.49,2.49,0,0,0-.89.21c-.39.28-.85.41-1.25.65-.66.4-1.29.84-1.93,1.27s-1.08.73-1.6,1.12a8.93,8.93,0,0,0-1,.84,9,9,0,0,1-1,1.07A4.31,4.31,0,0,0,145,92a2.17,2.17,0,0,1-.77.76c.09.52-.3.87-.49,1.28a11,11,0,0,0-.7,1.49,9.74,9.74,0,0,0-.18,1.63,4.84,4.84,0,0,1-.16,1.22,2.05,2.05,0,0,0,0,1.25,12.35,12.35,0,0,1,.59,2,.58.58,0,0,0,.09.22c.31.6.61,1.22,1,1.8a2.51,2.51,0,0,0,.54.59,4.47,4.47,0,0,1,1.26,1.64.72.72,0,0,0,.3.27l1.4.88a9.11,9.11,0,0,0,2.14,1,1.9,1.9,0,0,1,.36.2c.58.33,1.15.69,1.75,1,.81.41,1.71.58,2.52,1a15.09,15.09,0,0,0,2.1.83,8.58,8.58,0,0,0,1,.3c.75.18,1.51.33,2.27.5a2.94,2.94,0,0,0,.68.17,2,2,0,0,1,1.32.47l.34-.23a.71.71,0,0,0,1,.18.36.36,0,0,1,.28,0,3.37,3.37,0,0,0,1.35.14,1.16,1.16,0,0,1,.34,0c.19.06.38.15.61.24a1,1,0,0,0,1.66.24.45.45,0,0,0,.67,0,1.53,1.53,0,0,1,1.88-.17c.09.05.22,0,.33.06s.17,0,.18.09c.09.34.3.24.51.17s.51-.25.67-.18a1.28,1.28,0,0,0,.88,0,.84.84,0,0,1,.85.21c.23-.16.44-.42.63-.41a2.46,2.46,0,0,1,1.19.31,1.78,1.78,0,0,0,1.28.26,3.48,3.48,0,0,1,.81-.12,2.51,2.51,0,0,0,1.05-.13,7.3,7.3,0,0,1,.74-.09.89.89,0,0,0,.43-.17c.07-.06,0-.23.07-.35l.52-.14.43.32a2.35,2.35,0,0,0,.72-.27,1.45,1.45,0,0,1,1-.29,1.09,1.09,0,0,0,1-.41.61.61,0,0,1,.32-.24.57.57,0,0,0,.5-.52,4.45,4.45,0,0,0,1.36-.65c.42-.43,1-.54,1.41-.91s.69-.53,1-.81.48-.46.71-.69a1.25,1.25,0,0,0,.26-.31c.4-.84.79-1.68,1.18-2.52a3,3,0,0,1,.36-.68,4.31,4.31,0,0,0,.6-1.4,19.54,19.54,0,0,0,.66-2.4c.12-.53.18-1.09.26-1.63a.32.32,0,0,0,0-.12,6.51,6.51,0,0,1-.07-1.5c0-.43,0-.86,0-1.28-.07-.73-.23-1.45-.25-2.17a19.79,19.79,0,0,0-.48-2.56c-.06-.33-.35-.65-.35-1a2.9,2.9,0,0,0-.33-1.24c-.35-.77-.65-1.56-1-2.33-.14-.32-.34-.61-.52-.92-.27-.46-.52-.93-.8-1.39-.38-.63-.75-1.27-1.15-1.88A4,4,0,0,0,185.55,81c-.18-.07-.3-.29-.43-.45a13.41,13.41,0,0,0-1.65-2,5.8,5.8,0,0,1-.86-.71A19.71,19.71,0,0,0,181,76.33a1.43,1.43,0,0,0-.37-.3,8.68,8.68,0,0,1-1.86-1.55,6.8,6.8,0,0,0-1.51-1,1.89,1.89,0,0,1-.75-.54,1.82,1.82,0,0,0-.81-.68,4.65,4.65,0,0,1-1-.53A11.64,11.64,0,0,0,173,70.53c-.79-.39-1.37-1.14-2.24-1.42-.05,0-.09-.08-.14-.11-.66-.39-1.32-.8-2-1.18a3.46,3.46,0,0,0-.59-.21h0l-.57-.42c-.71-.49-1.41-1-2.13-1.46a6.31,6.31,0,0,1-1.42-.95.94.94,0,0,0-.35-.22A11.24,11.24,0,0,1,160.65,63a.61.61,0,0,0-.21-.11,2.55,2.55,0,0,1-1.4-.79,1,1,0,0,0-.3-.19,3.58,3.58,0,0,1-.57-.31,16.14,16.14,0,0,1-2.07-1.57,6.13,6.13,0,0,0-1.43-.91,3.46,3.46,0,0,0-.5-.31,2.71,2.71,0,0,1-1.41-1.28c-.1-.19-.09-.43-.2-.61a2.54,2.54,0,0,1-.32-1.4c0-.12-.13-.26-.22-.37s-.16-.12-.22-.2c-.2-.25-.13-.46.19-.51a3.79,3.79,0,0,1,.54,0v0c.1.49.32.61.76.51a17.91,17.91,0,0,1,1.91-.35c.34,0,.39-.23.54-.57-.55.49-.55.49-1,.08a1.33,1.33,0,0,1,1.39-.44,1.12,1.12,0,0,0,1.1-.29c.47,0,.73.49,1.19.33V53.2c.4.16.75.33,1.12.45a1.25,1.25,0,0,0,.68.1,5,5,0,0,1,1.15-.25c.25,0,.48-.23.74-.36l-.28-.6a5.4,5.4,0,0,0,.78-.14c.7-.24,1-.19,1.44.32.22,0,.21,0,.38-.31.06-.08.28-.16.33-.12.36.3.76.14,1.13.11s.88-.19,1.32-.2a4,4,0,0,0,2-.37.85.85,0,0,1,.41-.09,4.07,4.07,0,0,0,1.4-.38,3,3,0,0,1,1.28-.4c.65.09,1.23-.37,1.86-.1l.88-.5a3.82,3.82,0,0,0,.6.13c.24,0,.55.07.7-.06.46-.4,1-.33,1.55-.55a6.41,6.41,0,0,1,1-.32c.17,0,.5,0,.5,0,0-.41.31-.06.42-.13.36-.23.71-.48,1.1-.75a3.39,3.39,0,0,0,2.49-.59l-.14-.29c.41,0,.18.4.46.51.27-.13.61-.07.94-.26a2.6,2.6,0,0,1,1.17-.14.91.91,0,0,0,.73-.32.81.81,0,0,1,.37-.23c.19-.05.39,0,.58-.08.48-.14.95-.31,1.42-.46l.73-.22c.24-.08.58-.09.69-.26.23-.34.52-.14.76-.19.7-.15,1.39-.35,2.1-.47a14.94,14.94,0,0,0,2.68-.94c.42-.16.82-.38,1.25-.49a2.75,2.75,0,0,0,1.11-.51,1,1,0,0,1,.41-.19c.56-.13,1.12-.25,1.69-.35,1-.17,1.79-.85,2.81-.84.07,0,.13-.08.21-.11a1.64,1.64,0,0,1,.39-.14,4.5,4.5,0,0,0,2.23-.87,1.93,1.93,0,0,1,.42-.2l.47-.21.66-.33a3.09,3.09,0,0,1,.73-.29,1.36,1.36,0,0,0,.79-.3.24.24,0,0,1,.17,0,.81.81,0,0,0,.67-.32,3.42,3.42,0,0,1,.58-.4l.84-.5a1.24,1.24,0,0,0,.83-.23,11.25,11.25,0,0,0,1.2-.79,11.43,11.43,0,0,1,1.51-1c.15-.1.34-.17.42-.31a4.79,4.79,0,0,1,1-1.07,8.2,8.2,0,0,0,1.56-2.39,6.18,6.18,0,0,0,.55-3.18c0-.79,0-1.58-.11-2.37a7.67,7.67,0,0,0-.21-1.39,13.44,13.44,0,0,0-.52-1.45,5.19,5.19,0,0,1-.32-.69,3.81,3.81,0,0,0-1.19-2.06c-.26-.24-.47-.53-.72-.79a5.46,5.46,0,0,0-.69-.65c-.53-.39-.92-1-1.66-1.08-.43-.65-1.21-.69-1.81-1-.2-.11-.41-.22-.61-.35l-1.86-1.21c-.06,0-.16,0-.23,0-.43-.13-.87-.24-1.29-.39s-.91-.36-1.37-.53a17.58,17.58,0,0,1-2.53-.95c-.74-.41-1.57-.42-2.31-.76a.25.25,0,0,0-.12,0,1.77,1.77,0,0,1-1-.3,3.33,3.33,0,0,0-.56-.31c-.57-.27-1.22-.26-1.79-.55a2.69,2.69,0,0,0-1.5-.3c-.25,0-.45.08-.5.43H196c-.28.54-.66.48-1.08.38a1.19,1.19,0,0,1,0-.24c0-.32-.06-.48-.44-.55a3.29,3.29,0,0,1-1-.5,1,1,0,0,0-1.17,0,1.27,1.27,0,0,1-.91.21,1.74,1.74,0,0,1-.4,0,4.24,4.24,0,0,1-1.84-.65.7.7,0,0,1,.73-.34c-.54-.19-1-.59-1.51-.5-.33.2.14.54-.34.68l-.93-.76c-.2.22-.45.15-.69,0a4.82,4.82,0,0,0-1.16-.58c-.49-.2-.63-.2-1,.19a.46.46,0,0,1-.57.18,1,1,0,0,0-.47-.08c-1,.14-1.95-.43-3-.41A10.29,10.29,0,0,1,178,9.42c-.17,0-.39,0-.5-.08a1.77,1.77,0,0,0-1-.29A1.62,1.62,0,0,1,176,8.9l0-.14,1.14.18c.23-.31.21-.43-.12-.51a1.68,1.68,0,0,0-.47,0c-.23,0-.49.13-.67,0A8.27,8.27,0,0,0,174,8.07l.35.32c.07.08.14.16.22.26-.58.18-.58.18-1.31-.13l.63-.55c-.37-.1-.65-.3-1,0l.15.42c-.07,0-.13.1-.17.09-.26-.07-.52-.26-.75.05,0,0-.11,0-.16,0a6,6,0,0,0-1.85-.31c-.25,0-.35-.09-.47-.34l.87.12c-.19-.37-.19-.37-1-.83-.19.21-.36.45-.57.64a.6.6,0,0,1-.4.19c-.48-.06-1,.14-1.46-.11a3,3,0,0,0-.63-.18,1.22,1.22,0,0,0-.93,0,.87.87,0,0,1-1.18-.21.55.55,0,0,0-.41-.14,1.76,1.76,0,0,1-1.45-.47l.61-.18a.94.94,0,0,0-.74-.09,2.46,2.46,0,0,1-1.62.2.93.93,0,0,0-.43,0c-.58.17-1.19.41-1.74-.16a.88.88,0,0,0-.54-.2,1.81,1.81,0,0,1-1.15-.54.83.83,0,0,0-.76-.24c-.31,0-.63,0-1,.07a1.2,1.2,0,0,1,0,.22.48.48,0,0,1,0,.14c-1.49-.95-1.51-1-2.27-.75L153,6a.57.57,0,0,1-.6.22,2.87,2.87,0,0,1-.59-.36,3.52,3.52,0,0,1-2.9-.38l-.29.19-.25-.3c0,.41-.2.5-.47.51a3.06,3.06,0,0,0-1,.08,1.56,1.56,0,0,1-1.23-.18c-.13-.05-.28-.18-.38-.15-.56.17-1.05-.31-1.61-.12-.12,0-.36-.11-.45-.24a1.25,1.25,0,0,0-1.08-.48,4.22,4.22,0,0,0-1.74,0c-.46-.3-.93.07-1.43-.08a.62.62,0,0,1-.8.51c-.06,0-.14.06-.22.09-.45.17-.49.32-.2.69a5.59,5.59,0,0,1,.3.48c-.48.33-.95.06-1.35.19-.38-.57.32-.53.41-.81a2.69,2.69,0,0,0-.51-.41,1.18,1.18,0,0,0-.72-.17.51.51,0,0,1-.64-.25c0-.07.07-.16.11-.16s.18,0,.27,0a1.88,1.88,0,0,0,.43-.06.3.3,0,0,0,0-.2,1,1,0,0,0-.43-.14,7.76,7.76,0,0,0-.88.14s0,0-.07.07l.31.47c-.59,0-1.1.26-1.61-.09a3,3,0,0,1-.18.29,1.75,1.75,0,0,1-.19.18L132.66,5c.11-.11.46-.05.25-.38l-.81-.17-.08.12.38.47a1.61,1.61,0,0,1-1.28.17c-.47-.08-.94-.12-1.42-.18,0,0-.07,0-.12-.07l-.12-.47-.91,0,.17.41-.11.08-.53-.51c-.14-.13-.68-.13-.75,0l.25.38c-.31.18-.43,0-.56-.19s-.23-.34-.31-.32c-.3.07-.47-.17-.71-.24-.46-.14-.45-.15-.66.29,0,.06-.12.1-.21.17-.17-.28-.38-.31-.69-.3a4.67,4.67,0,0,1-1.6.09,2.06,2.06,0,0,0-.47-.07c-.17,0-.27.07-.23.26l-.7-.2c.1.31.2.42.45.32l.25-.11c.17.13.48.16.37.53a3.31,3.31,0,0,0-.53,0,2.2,2.2,0,0,0-.67.18,1.11,1.11,0,0,1-1.46-.27l.22-.55-.62.06.24.5-.81-.1a.55.55,0,0,1-.6.4h-1.45l-.36-.53-.07.57a3.32,3.32,0,0,1-.73,0,4.54,4.54,0,0,1-.76-.32c.09-.42,0-.54-.38-.67a1.51,1.51,0,0,0-1,.16c-.55.19-1.22-.11-1.68.42a1.15,1.15,0,0,0-.92.63l-1.25-.25.47-.31c-.49-.11-.82-.54-1.28-.15,0,0-.16,0-.23,0a2.16,2.16,0,0,0-1.41,0v1c-.29,0-.58-.12-.79,0-.52.23-1,0-1.51,0s-.88-.32-1.36-.19-1-.15-1.51,0a5.38,5.38,0,0,1-.61.19,2.14,2.14,0,0,1-.68.15,4,4,0,0,0-1.67.1,1.43,1.43,0,0,1-1.21,0,.39.39,0,0,0-.28,0,11.25,11.25,0,0,1-2.5.22,3,3,0,0,1-.9.1,6.32,6.32,0,0,0-1.89.14,8.88,8.88,0,0,1-2.05.14c-.25,0-.5,0-.75,0,0,0,0-.06-.09-.12l.34-.29c-.3-.2-.59-.32-.89-.14s.08.46.08.81l-.44-.34c-.14.13-.25.34-.41.37a8.36,8.36,0,0,1-1.42.16c-.77,0-1.55,0-2.32,0C84.28,7.19,84.22,7.24,84.18,7.27ZM183.8,56.61c-.32.2-.71.34-.48.83a.34.34,0,0,1-.13.31.88.88,0,0,0-.62.64c-.51.18-.54.7-.74,1.09-.11.21-.3.4-.26.74a3.23,3.23,0,0,1-.12,1.5,1.47,1.47,0,0,0,.32,1.49c.24.35.6.63.68,1.1,0,.11.18.21.29.28.35.21.71.4,1.13.64,0-.07.19-.17.21-.3s.15-.29.35-.39a3.2,3.2,0,0,1,1.09-.26c.23,0,.59-.16.83.13.43.52.94.13,1.42.13a2.18,2.18,0,0,0,.57-.12.21.21,0,0,0,.12-.12c.07-.23.27-.25.45-.33.41-.2.9-.26,1.14-.77a1,1,0,0,1,.75-.44,11.31,11.31,0,0,0,1.23-.4l.84,1a4.15,4.15,0,0,0,.53.63c.44.35.93.64,1.4,1,.72-.24.72-.24,1.28.42.38-.1.17-.49.35-.73.53-.2,1.17.08,1.69-.3l4.46-.5c.37,0,.74-.15,1.11-.16.69,0,1.39.08,2.08,0a11.36,11.36,0,0,0,2.61-.23,2.79,2.79,0,0,1,1.28-.11,1.07,1.07,0,0,0,.41,0,2.4,2.4,0,0,1,1.19-.1,10.92,10.92,0,0,0,1.61,0c.54,0,1,.47,1.6.31.68.4,1.55.27,2.19.79a.3.3,0,0,0,.22,0c.4-.1.86,0,1.21-.33.07-.07.23,0,.35-.05a2.41,2.41,0,0,0,.57,0,2.69,2.69,0,0,1,1,0c.34,0,.61-.28,1-.25a17.29,17.29,0,0,0,1.91-.07,3.53,3.53,0,0,0,1.47-.23c.34.3.69,0,1,0a4.41,4.41,0,0,0,2.3-.35.24.24,0,0,1,.12,0l3.91-.07c.27,0,.55-.05.82,0,.64,0,1.28,0,1.92.06a.55.55,0,0,0,.61-.45c.06-.39.26-.44.6-.5a3.24,3.24,0,0,0,1.76-.61.74.74,0,0,1,.8-.25c.19.06.61-.27.64-.47a.49.49,0,0,0-.28-.58.73.73,0,0,1-.41-.61.51.51,0,0,0-.46-.48c-.73-.09-1.46-.24-2.19-.27-.25,0-.45-.15-.66-.14a9.83,9.83,0,0,1-2,0c-1.19-.18-2.4-.16-3.61-.22l-1.17,0c-.71,0-1.43-.06-2.14-.16a13.07,13.07,0,0,1-1.41-.43,8.12,8.12,0,0,0-2-.23,5.69,5.69,0,0,1-1.38,0,1.1,1.1,0,0,0-.41.06,1.55,1.55,0,0,1-.32.05c-.57,0-1.14-.08-1.72-.11a3,3,0,0,0-1.55.19,1.81,1.81,0,0,1-1.16.07,16.35,16.35,0,0,0-3.08-.52l-1.41-.09c-.25,0-.5,0-.76,0-.59,0-1.18,0-1.77,0s-1.05.11-1.58.16a16.19,16.19,0,0,1-2.81.2,1.09,1.09,0,0,0-.53,0,2.38,2.38,0,0,1-1.33.18c-1-.09-2,.21-3,.21a8.79,8.79,0,0,1-1.48,0,2.15,2.15,0,0,0-.86,0,1,1,0,0,1-.56,0,1.61,1.61,0,0,0-.87-.12,1.57,1.57,0,0,1-1.42-.74,4,4,0,0,0-2.06-1.62,1.21,1.21,0,0,0-1.09.06,16.83,16.83,0,0,0-2.85,1.58.55.55,0,0,1-.74-.06,1.22,1.22,0,0,1-.45-.72,2.94,2.94,0,0,0-1.15-1.55.45.45,0,0,0-.6-.05,4.84,4.84,0,0,1-.91.44A1.45,1.45,0,0,0,183.8,56.61ZM167.72,7c-.67.07-.67.07-.63.45l.74-.08ZM116.3,9c-.29.22-.22.42,0,.62,0,0,.07,0,.13,0l.3-.36Zm56-.88c-.14-.47-.52-.57-.86-.21ZM10,27.46c.35.27.54,0,.79-.06C10.6,27.14,10.6,27.14,10,27.46Zm71-16-.49.31.53.24Zm39.13-6.87c.22.19.35.26.54.07C120.6,4.51,120.46,4.46,120.19,4.61ZM86,6.8c-.28-.24-.42-.12-.55,0Zm-10.37.85c0,.25.12.35.43.23Zm80.67,46.5.08.11a1.46,1.46,0,0,0,.2-.14s0-.09-.07-.13ZM102.4,5.28l-.11-.08-.13.21.07.06Z" transform="translate(-1.56 -4.09)"/><path d="M122.13,4.61c0-.19.06-.26.23-.26a2.06,2.06,0,0,1,.47.07,4.67,4.67,0,0,0,1.6-.09c.31,0,.53,0,.69.3.1-.07.18-.11.21-.17.21-.44.2-.43.66-.29.24.07.41.31.71.24.07,0,.21.2.31.32s.25.37.56.19l-.25-.38c.07-.14.62-.14.75,0l.53.51.11-.08-.17-.41.91,0,.12.47c.05,0,.09.07.12.07.47.06.95.1,1.42.18a1.61,1.61,0,0,0,1.28-.17L132,4.59l.08-.12.81.17c.21.33-.14.28-.25.38l.41.51a1.75,1.75,0,0,0,.19-.18,3,3,0,0,0,.18-.29c.51.35,1,.09,1.61.09l-.31-.47s0-.07.07-.07a7.76,7.76,0,0,1,.88-.14,1,1,0,0,1,.43.14.3.3,0,0,1,0,.2,1.88,1.88,0,0,1-.43.06c-.09,0-.18,0-.27,0s-.06.09-.11.16a.51.51,0,0,0,.64.25,1.18,1.18,0,0,1,.72.17,2.69,2.69,0,0,1,.51.41c-.09.28-.79.24-.41.81.4-.14.87.13,1.35-.19a5.59,5.59,0,0,0-.3-.48c-.28-.36-.24-.52.2-.69.07,0,.15-.1.22-.09a.62.62,0,0,0,.8-.51c.5.14,1-.22,1.43.08a4.22,4.22,0,0,1,1.74,0,1.25,1.25,0,0,1,1.08.48c.08.13.33.27.45.24.56-.18,1.06.3,1.61.12.1,0,.25.1.38.15a1.56,1.56,0,0,0,1.23.18,3.06,3.06,0,0,1,1-.08c.28,0,.46-.1.47-.51l.25.3.29-.19a3.52,3.52,0,0,0,2.9.38,2.87,2.87,0,0,0,.59.36A.57.57,0,0,0,153,6l-.14-.63c.76-.2.78-.19,2.27.75a.48.48,0,0,0,0-.14,1.2,1.2,0,0,0,0-.22c.33,0,.65,0,1-.07a.83.83,0,0,1,.76.24,1.81,1.81,0,0,0,1.15.54.88.88,0,0,1,.54.2c.54.57,1.15.33,1.74.16a.93.93,0,0,1,.43,0,2.46,2.46,0,0,0,1.62-.2.94.94,0,0,1,.74.09l-.61.18a1.76,1.76,0,0,0,1.45.47.55.55,0,0,1,.41.14.87.87,0,0,0,1.18.21,1.22,1.22,0,0,1,.93,0,3,3,0,0,1,.63.18c.48.25,1,.05,1.46.11a.6.6,0,0,0,.4-.19c.21-.2.39-.43.57-.64.84.46.84.46,1,.83l-.87-.12c.11.25.22.35.47.34a6,6,0,0,1,1.85.31c.06,0,.15.06.16,0,.24-.31.5-.12.75-.05,0,0,.1-.05.17-.09l-.15-.42c.34-.25.63-.06,1,0l-.63.55c.73.31.73.31,1.31.13-.08-.1-.14-.18-.22-.26L174,8.07a8.27,8.27,0,0,1,1.93.39c.18.08.44,0,.67,0a1.68,1.68,0,0,1,.47,0c.33.08.35.2.12.51l-1.14-.18,0,.14a1.62,1.62,0,0,0,.37.15,1.77,1.77,0,0,1,1,.29c.11.09.34,0,.5.08a10.29,10.29,0,0,0,2.25.46c1,0,1.95.55,3,.41a1,1,0,0,1,.47.08.46.46,0,0,0,.57-.18c.35-.39.48-.39,1-.19a4.82,4.82,0,0,1,1.16.58c.24.18.5.24.69,0l.93.76c.48-.14,0-.48.34-.68.52-.09,1,.32,1.51.5a.7.7,0,0,0-.73.34,4.24,4.24,0,0,0,1.84.65,1.74,1.74,0,0,0,.4,0,1.27,1.27,0,0,0,.91-.21,1,1,0,0,1,1.17,0,3.29,3.29,0,0,0,1,.5c.37.07.45.24.44.55a1.19,1.19,0,0,0,0,.24c.41.09.8.15,1.08-.38h-.65c0-.35.25-.4.5-.43a2.69,2.69,0,0,1,1.5.3c.58.29,1.23.28,1.79.55a3.33,3.33,0,0,1,.56.31,1.77,1.77,0,0,0,1,.3.25.25,0,0,1,.12,0c.74.34,1.57.35,2.31.76a17.58,17.58,0,0,0,2.53.95c.46.17.9.37,1.37.53s.86.26,1.29.39c.08,0,.17,0,.23,0l1.86,1.21c.2.13.4.23.61.35.61.34,1.38.38,1.81,1,.74.08,1.13.69,1.66,1.08a5.46,5.46,0,0,1,.69.65c.25.26.46.55.72.79a3.81,3.81,0,0,1,1.19,2.06,5.19,5.19,0,0,0,.32.69,13.44,13.44,0,0,1,.52,1.45,7.67,7.67,0,0,1,.21,1.39c.06.79.08,1.58.11,2.37a6.18,6.18,0,0,1-.55,3.18,8.2,8.2,0,0,1-1.56,2.39,4.79,4.79,0,0,0-1,1.07c-.08.14-.28.21-.42.31a11.43,11.43,0,0,0-1.51,1,11.25,11.25,0,0,1-1.2.79,1.24,1.24,0,0,1-.83.23l-.84.5a3.42,3.42,0,0,0-.58.4.81.81,0,0,1-.67.32.24.24,0,0,0-.17,0,1.36,1.36,0,0,1-.79.3,3.09,3.09,0,0,0-.73.29l-.66.33-.47.21a1.93,1.93,0,0,0-.42.2,4.5,4.5,0,0,1-2.23.87,1.64,1.64,0,0,0-.39.14c-.07,0-.14.11-.21.11-1,0-1.84.67-2.81.84-.57.1-1.13.22-1.69.35a1,1,0,0,0-.41.19,2.75,2.75,0,0,1-1.11.51c-.43.11-.83.34-1.25.49a14.94,14.94,0,0,1-2.68.94c-.71.12-1.4.32-2.1.47-.24.05-.53-.15-.76.19-.11.16-.45.18-.69.26l-.73.22c-.47.15-.95.32-1.42.46-.19.05-.39,0-.58.08a.81.81,0,0,0-.37.23.91.91,0,0,1-.73.32,2.6,2.6,0,0,0-1.17.14c-.34.19-.67.13-.94.26-.28-.11,0-.55-.46-.51l.14.29a3.39,3.39,0,0,1-2.49.59c-.39.27-.74.52-1.1.75-.11.07-.37-.28-.42.13,0,0-.34,0-.5,0a6.41,6.41,0,0,0-1,.32c-.5.22-1.09.15-1.55.55-.14.12-.46.07-.7.06a3.82,3.82,0,0,1-.6-.13l-.88.5c-.63-.27-1.22.19-1.86.1a3,3,0,0,0-1.28.4,4.07,4.07,0,0,1-1.4.38.85.85,0,0,0-.41.09,4,4,0,0,1-2,.37c-.44,0-.88.16-1.32.2s-.77.19-1.13-.11c0,0-.27,0-.33.12-.18.26-.16.27-.38.31-.45-.51-.74-.56-1.44-.32a5.4,5.4,0,0,1-.78.14l.28.6c-.26.14-.5.35-.74.36a5,5,0,0,0-1.15.25,1.25,1.25,0,0,1-.68-.1c-.37-.12-.72-.29-1.12-.45v.53c-.46.16-.71-.34-1.19-.33a1.12,1.12,0,0,1-1.1.29,1.33,1.33,0,0,0-1.39.44c.5.41.5.41,1-.08-.15.34-.2.53-.54.57a17.91,17.91,0,0,0-1.91.35c-.44.1-.66,0-.76-.51l.31.1c-.09-.13-.2-.4-.3-.08a3.79,3.79,0,0,0-.54,0c-.32.05-.39.26-.19.51.06.07.16.12.22.2s.22.25.22.37a2.54,2.54,0,0,0,.32,1.4c.11.18.1.43.2.61a2.71,2.71,0,0,0,1.41,1.28,3.46,3.46,0,0,1,.5.31,6.13,6.13,0,0,1,1.43.91,16.14,16.14,0,0,0,2.07,1.57,3.58,3.58,0,0,0,.57.31,1,1,0,0,1,.3.19,2.55,2.55,0,0,0,1.4.79.61.61,0,0,1,.21.11,11.24,11.24,0,0,0,2.93,1.53.94.94,0,0,1,.35.22,6.31,6.31,0,0,0,1.42.95c.73.46,1.43,1,2.13,1.46l.57.42c-.26,0-.53-.28-.81,0,.35.36.35.36.81,0a3.46,3.46,0,0,1,.59.21c.67.38,1.33.78,2,1.18.05,0,.09.09.14.11.88.27,1.45,1,2.24,1.42a11.64,11.64,0,0,1,1.62,1.18,4.65,4.65,0,0,0,1,.53,1.82,1.82,0,0,1,.81.68,1.89,1.89,0,0,0,.75.54,6.8,6.8,0,0,1,1.51,1A8.68,8.68,0,0,0,180.62,76a1.43,1.43,0,0,1,.37.3,19.71,19.71,0,0,1,1.62,1.56,5.8,5.8,0,0,0,.86.71,13.41,13.41,0,0,1,1.65,2c.13.17.26.38.43.45a4,4,0,0,1,1.66,1.71c.41.61.78,1.25,1.15,1.88.27.46.53.93.8,1.39.17.31.38.6.52.92.35.77.65,1.56,1,2.33a2.9,2.9,0,0,1,.33,1.24c0,.32.29.63.35,1a19.79,19.79,0,0,1,.48,2.56c0,.73.19,1.45.25,2.17,0,.42,0,.86,0,1.28a6.51,6.51,0,0,0,.07,1.5.32.32,0,0,1,0,.12c-.08.54-.14,1.09-.26,1.63a19.54,19.54,0,0,1-.66,2.4,4.31,4.31,0,0,1-.6,1.4,3,3,0,0,0-.36.68c-.4.84-.78,1.68-1.18,2.52a1.25,1.25,0,0,1-.26.31c-.23.24-.46.48-.71.69s-.69.53-1,.81-1,.48-1.41.91a4.45,4.45,0,0,1-1.36.65.57.57,0,0,1-.5.52.61.61,0,0,0-.32.24,1.09,1.09,0,0,1-1,.41,1.45,1.45,0,0,0-1,.29,2.35,2.35,0,0,1-.72.27l-.43-.32-.52.14c0,.12,0,.28-.07.35a.89.89,0,0,1-.43.17,7.3,7.3,0,0,0-.74.09,2.51,2.51,0,0,1-1.05.13,3.48,3.48,0,0,0-.81.12,1.78,1.78,0,0,1-1.28-.26,2.46,2.46,0,0,0-1.19-.31c-.19,0-.39.25-.63.41a.84.84,0,0,0-.85-.21,1.28,1.28,0,0,1-.88,0c-.16-.08-.44.11-.67.18s-.43.16-.51-.17c0,0-.11-.07-.18-.09s-.24,0-.33-.06a1.53,1.53,0,0,0-1.88.17.45.45,0,0,1-.67,0,1,1,0,0,1-1.66-.24c-.23-.09-.41-.18-.61-.24a1.16,1.16,0,0,0-.34,0,3.37,3.37,0,0,1-1.35-.14.36.36,0,0,0-.28,0,.71.71,0,0,1-1-.18l-.34.23a2,2,0,0,0-1.32-.47,2.94,2.94,0,0,1-.68-.17c-.76-.17-1.52-.33-2.27-.5a8.58,8.58,0,0,1-1-.3,15.09,15.09,0,0,1-2.1-.83c-.81-.45-1.71-.62-2.52-1-.6-.3-1.17-.66-1.75-1a1.9,1.9,0,0,0-.36-.2,9.11,9.11,0,0,1-2.14-1l-1.4-.88a.72.72,0,0,1-.3-.27,4.47,4.47,0,0,0-1.26-1.64,2.51,2.51,0,0,1-.54-.59c-.34-.59-.64-1.2-1-1.8a.58.58,0,0,1-.09-.22,12.35,12.35,0,0,0-.59-2,2.05,2.05,0,0,1,0-1.25,4.84,4.84,0,0,0,.16-1.22,9.74,9.74,0,0,1,.18-1.63,11,11,0,0,1,.7-1.49c.19-.42.57-.76.49-1.28A2.17,2.17,0,0,0,145,92a4.31,4.31,0,0,1,1.21-1.35,9,9,0,0,0,1-1.07,8.93,8.93,0,0,1,1-.84c.52-.39,1.06-.76,1.6-1.12s1.27-.88,1.93-1.27c.4-.24.85-.37,1.25-.65a2.49,2.49,0,0,1,.89-.21,4,4,0,0,1-1.62,2.05,1.08,1.08,0,0,0-.24.16c-.28.32-.46.75-1,.77-.26.46-.77.6-1.16.89a7,7,0,0,0-.71.78,13.38,13.38,0,0,1-1.34,1.09,6.16,6.16,0,0,0-1,1.07c-.11.14,0,.41-.06.75.27-.14.45-.21.6-.3s.5-.51.88-.57a.2.2,0,0,0,.13-.12c.26-.69.95-.89,1.47-1.27,0,0,.07,0,.11,0s0,0,0,0c-.46.45-.92.89-1.37,1.36s-1,1.06-1.45,1.63a3,3,0,0,1-.66.8,2.07,2.07,0,0,0-.53.83c-.22.46-.43.92-.62,1.4a3.23,3.23,0,0,0-.15.68c-.05.33-.06.67-.14,1a3.46,3.46,0,0,0,.2,1.69c.09.38.46.68.62,1.05a9.19,9.19,0,0,0,1.85,2.19c.37.44.9.56,1.27.92a5.24,5.24,0,0,0,1.36.72c.21.11.4.25.6.37a1.76,1.76,0,0,0,.19.15,21,21,0,0,0,2.9,1.31,13.67,13.67,0,0,0,1.53.2,9.79,9.79,0,0,1,1,.26c.36.1.73.16,1.08.29.68.26,1.35.58,2,.82a8.87,8.87,0,0,0,1.12.22l1.47.34a6.37,6.37,0,0,1,2.11.05c.55.05,1.08.2,1.62.31.11,0,.25.09.34.05.33-.14.63,0,1,0s.91.06,1.36.1c.26,0,.55-.16.79.09.22-.14.48-.07.71-.14a14,14,0,0,1,1.77-.49,2.16,2.16,0,0,1,1,0,1,1,0,0,0,.56,0,1.51,1.51,0,0,1,1.19.06,1.53,1.53,0,0,0,1.09.14c.08,0,.21.08.33.1a1.91,1.91,0,0,0,1.38-.2,1.89,1.89,0,0,1,1.12-.24c.51,0,1.12.13,1.52-.39a1,1,0,0,0,.08-.2l-.56-.5c.5-.15,1-.27,1.41-.42.29-.1.46-.38.81-.45a13.22,13.22,0,0,0,1.46-.53,2.24,2.24,0,0,0,1.39-.88c0-.05.15-.05.21-.09a8.86,8.86,0,0,0,1.59-1,3.79,3.79,0,0,0,1.37-1.73.32.32,0,0,1,.12-.19c.46-.24.51-.75.74-1.13a7.92,7.92,0,0,0,.94-2.61c.11-.56.1-1.14.22-1.7a6.17,6.17,0,0,0-.15-2.23,6.44,6.44,0,0,0-.6-2,3.75,3.75,0,0,1-.14-.63,6.1,6.1,0,0,0-.28-.82c-.23-.51-.47-1-.73-1.51a12.67,12.67,0,0,0-.86-1.45c-.19-.26-.42-.47-.32-.83a.22.22,0,0,0-.06-.16,9.36,9.36,0,0,1-1.1-1.29c-.28-.47-.74-.77-1-1.26A4.85,4.85,0,0,0,183.54,84a3.56,3.56,0,0,1-.49-.43,5.41,5.41,0,0,0-.72-.84,4.53,4.53,0,0,0-.94-.78c-.38-.18-.54-.6-.87-.84a5.71,5.71,0,0,1-1.07-1.18,1.28,1.28,0,0,0-.41-.32,3.06,3.06,0,0,1-.92-.73,1.86,1.86,0,0,0-.72-.49,6.08,6.08,0,0,1-2.18-1.49,1.4,1.4,0,0,0-.35-.32,4.05,4.05,0,0,1-1.15-.83,1.4,1.4,0,0,0-.68-.34,1.75,1.75,0,0,1-1-.67,1.36,1.36,0,0,0-1-.61c-.19,0-.36-.21-.55-.31a4.29,4.29,0,0,1-1.09-.81,6.94,6.94,0,0,0-.82-.56c-.56-.44-1.24-.67-1.8-1.12a6.29,6.29,0,0,0-1.09-.6A35.83,35.83,0,0,1,162,68.63c-.32-.21-.61-.42-.9-.66a2.49,2.49,0,0,0-.72-.38c-.41-.15-.84-.24-1.25-.38a1.53,1.53,0,0,1-.42-.22.86.86,0,0,0-1.14-.06l-.52-.26a2.14,2.14,0,0,0-.11-.47c-.1-.21-.26-.36-.53-.24s-.63,0-.77-.35a1.29,1.29,0,0,1-1.24-.43,1.49,1.49,0,0,0-1.22-.62c-.14,0-.32-.19-.47-.31s-.27-.34-.44-.45a6.78,6.78,0,0,1-1.8-1.88,13.35,13.35,0,0,0-1.33-1.8,2.16,2.16,0,0,0-1.79-.86c-.69.08-1.4,0-2.09,0-.49,0-1,.11-1.46.15-.2,0-.4,0-.63,0l-.26.39-.1-.44a2.15,2.15,0,0,0-.42.2c-.36.29-.41.3-.79,0a1.32,1.32,0,0,0-1.26,0c-.06.06-.07.17-.09.23-.31-.11-.63-.34-.88-.28a6.84,6.84,0,0,1-1.48,0,4.82,4.82,0,0,1-.58,0c-.06,0-.13-.06-.17,0-.42.3-.89.07-1.33.14a8,8,0,0,0-1.38.33,2.53,2.53,0,0,0-.6.46l-.31.22-.28-.43c-.18,0-.44,0-.69,0a1.62,1.62,0,0,1-1.05,0,.32.32,0,0,0-.23,0l-1.44.53a.66.66,0,0,1-.29.06c-.56-.08-.81.23-.87.71l-3,.61-1.58.3a17.75,17.75,0,0,1-2.15.41c-.78.05-1.47.45-2.23.54a2.31,2.31,0,0,0-.61.27c0,.12.1.25.06.33a5.11,5.11,0,0,0-.18,2.41c0,.55,0,1.1.06,1.65a.26.26,0,0,1,0,.12,24.22,24.22,0,0,1-1.22,2.75,1.64,1.64,0,0,1-1.31.37,9.51,9.51,0,0,1-1.07-.53.46.46,0,0,1-.18-.23,1.58,1.58,0,0,0-.48-.72c-.27-.22-.2-1,.07-1.27.12-.13.27-.22.25-.44a.93.93,0,0,1,.53-.88.86.86,0,0,0,.46-.82,5.34,5.34,0,0,1,.15-1l-.7-.92a.36.36,0,0,0-.22,0c-.57.22-1.18,0-1.75.14a1.07,1.07,0,0,1-.48,0,.8.8,0,0,0-.88.17.24.24,0,0,1-.16.07,15.84,15.84,0,0,0-2.3.48c-1.24.15-2.47.45-3.71.67-.64.11-1.29.2-1.93.27a1.17,1.17,0,0,1-.92-.34c-.21-.18-.44-.33-.67-.5-.44-.33-.84-.62-.76-1.31a7.34,7.34,0,0,0-.12-2,1.48,1.48,0,0,1,.71-1.46,2.71,2.71,0,0,1,.87-.33c.06,0,.13,0,.18,0a17.32,17.32,0,0,1,3.2-1.1,1.09,1.09,0,0,1,.46-.07,6.47,6.47,0,0,0,1.85-.31c.5-.08,1-.47,1.51-.27.07,0,.18-.05.27-.08a11.09,11.09,0,0,1,1.12-.37c.69-.15,1.4-.23,2.09-.39a2.83,2.83,0,0,0,.89-.44c.09-.06.12-.29.09-.43-.08-.49-.2-1-.29-1.46a1.56,1.56,0,0,1-.05-.35,18,18,0,0,0-.33-3.17c-.21-1.43-.41-2.85-.62-4.28,0-.27-.13-.54-.2-.81a.77.77,0,0,1-.06-.29A14.15,14.15,0,0,0,113,44c0-.27,0-.54,0-.81s-.09-.83-.1-1.25c0-.57,0-1.14,0-1.71s0-1.34,0-2a5.93,5.93,0,0,1,.25-2.13,1.18,1.18,0,0,0,.14-.57,1.05,1.05,0,0,1,.4-.94.76.76,0,0,1,.85-.21c.56.14,1.08.28,1.3.89,0,.09.11.21.08.28-.19.43.07.76.17,1.14a8.58,8.58,0,0,1,.33,1.8,8.53,8.53,0,0,1-.23,1.4c-.05.39,0,.79-.08,1.17-.12.75.23,1.5-.07,2.24a.5.5,0,0,0,0,.23,13.44,13.44,0,0,1,.23,2.32c0,.54.11,1.06.07,1.59a11.67,11.67,0,0,0,.16,1.34,5.81,5.81,0,0,0,.31,1.85,3.36,3.36,0,0,1,.06.81,1.8,1.8,0,0,0,.13.51,1.62,1.62,0,0,1,.21,1.19.53.53,0,0,0,0,.29,1.69,1.69,0,0,1,.09,1.1,1.21,1.21,0,0,0,.08.58c.11.48.2,1,.36,1.43s.28.41.69.35.94-.1,1.41-.14a1,1,0,0,0,.74-.31,1,1,0,0,1,.8-.33c.37,0,.74-.12,1.11-.17a4.15,4.15,0,0,1,.71,0,2.29,2.29,0,0,0,1.19-.21,5.44,5.44,0,0,1,1.42-.38,8,8,0,0,1,1.66-.19c.31,0,.63-.14,1-.12a9.71,9.71,0,0,0,2.72-.32c.76-.18,1.54-.3,2.31-.43.39-.07.78-.09,1.18-.14.22,0,.42-.1.64-.13s.38,0,.57,0a1.82,1.82,0,0,0,.75-.1,2.61,2.61,0,0,1,1.42-.27c.75,0,1.49-.06,2.24-.1a1.77,1.77,0,0,0,.33-.12,8.66,8.66,0,0,1,1.88-.49,8.67,8.67,0,0,0,2.09-.51,2.13,2.13,0,0,1,.81-.12c.46.05.88-.28,1.29-.17a3.33,3.33,0,0,0,1.48-.19c.49-.07,1-.26,1.44-.37a3.87,3.87,0,0,1,1-.11,3.92,3.92,0,0,0,1.48-.17,5,5,0,0,1,.8-.07,1.46,1.46,0,0,0,.41-.17c.08,0,.14-.15.22-.16l2.28-.31a6.72,6.72,0,0,0,2-.34,1.86,1.86,0,0,1,.47-.05l.5-.1c.07,0,.14-.09.21-.1.8-.16,1.6-.34,2.41-.47a8.92,8.92,0,0,0,2.23-.63,2.37,2.37,0,0,1,.63-.1,16,16,0,0,0,2.51-.35c.9-.27,1.82-.4,2.72-.65a.94.94,0,0,0,.39-.14,2.09,2.09,0,0,1,1.39-.51,3.2,3.2,0,0,0,.51-.17c.21,0,.42-.07.63-.1a2.29,2.29,0,0,0,.35,0,9.22,9.22,0,0,1,1.73-.3,4.7,4.7,0,0,0,1.86-.55.38.38,0,0,1,.49,0,.37.37,0,0,0,.27.05l1.34-.35c.15,0,.32,0,.47-.06s.41-.1.62-.16c0,0,.07-.06.1-.06.65,0,1.23-.47,1.84-.44s1.18-.48,1.83-.36c.7-.34,1.52-.34,2.21-.74a3.55,3.55,0,0,1,2-.47,3.72,3.72,0,0,0,1.08-.25c.52-.15,1.05-.29,1.57-.46s1.13-.4,1.7-.6a1.53,1.53,0,0,1,.63-.16c.33,0,.47-.15.62-.34a3.84,3.84,0,0,0,1.88-.41,3.83,3.83,0,0,1,1.44-.49.33.33,0,0,0,.11,0c.62-.24,1.25-.47,1.86-.74a8.6,8.6,0,0,1,1.94-.62,1.62,1.62,0,0,0,.93-.46,1.29,1.29,0,0,1,1.14-.47c.08,0,.17-.07.26-.12l1.52-.89a.77.77,0,0,1,.27,0l.06-.35,1.58-.66.31.33c.3-.2.59-.38.86-.57a5.43,5.43,0,0,1,1.5-.6,2.1,2.1,0,0,0,1.36-1.13.67.67,0,0,1,.55-.48,3.33,3.33,0,0,0,2.16-1.37,1.54,1.54,0,0,1,.2-.22c.3-.26.73-.45.89-.77a2.37,2.37,0,0,1,.74-.81s.46-.82.49-.88a3.8,3.8,0,0,1,.22-.35,1.85,1.85,0,0,0,.29-.89,2.06,2.06,0,0,0-.41-1.5c-.28-.4-.49-.85-.77-1.25a4.53,4.53,0,0,0-.65-.75,8,8,0,0,0-2.54-1.9,2,2,0,0,1-.57-.41,6.06,6.06,0,0,0-2-1.14.41.41,0,0,1-.15-.09,4.7,4.7,0,0,0-1.7-.82,2.18,2.18,0,0,1-.37-.19,6.37,6.37,0,0,0-1.69-.74c-.87-.27-1.71-.61-2.57-.92-.54-.19-1.08-.39-1.63-.56a9.63,9.63,0,0,0-1.06-.25,4.72,4.72,0,0,1-1.48-.55,5.75,5.75,0,0,0-.74-.19,9.82,9.82,0,0,0-2.89-.77,9.34,9.34,0,0,1-1.51-.44c-.43-.11-.88-.17-1.32-.25-.09,0-.18-.08-.27-.1a6.74,6.74,0,0,0-1.22-.33,4.64,4.64,0,0,1-1.17-.37,7.9,7.9,0,0,0-.8-.21c-.42-.08-.85-.14-1.27-.22l-1.45-.31c-.25-.06-.49-.16-.74-.21s-.8-.14-1.21-.21c-.7-.12-1.41-.2-2.09-.37-1.06-.27-2.15-.29-3.21-.56-.55-.14-1.11-.26-1.67-.39l-.18,0c-1-.12-2-.22-3-.36-.41-.06-.8-.23-1.21-.28-.62-.07-1.25-.08-1.88-.12a.51.51,0,0,1-.26-.08,2.26,2.26,0,0,0-1.57-.31,3,3,0,0,1-.7-.07,6.75,6.75,0,0,0-1.92-.17,4.09,4.09,0,0,1-.8-.16c-.67-.08-1.33-.15-2-.22a1.66,1.66,0,0,1-.35,0,11.31,11.31,0,0,0-2.43-.38c-.49-.05-1-.17-1.47-.22a9.77,9.77,0,0,0-1,0,.34.34,0,0,1-.18,0c-.49-.34-1-.18-1.56-.23a1.64,1.64,0,0,1-.52-.09,1.27,1.27,0,0,0-.81,0,2.84,2.84,0,0,1-.85,0,7.5,7.5,0,0,1-1.28-.21,4.36,4.36,0,0,0-1.06,0,5.65,5.65,0,0,1-1-.1c-.21-.05-.4-.13-.54.05A.36.36,0,0,0,150,10c.06.06,0,.26,0,.44l-.85-.35.36-.31c0-.07-.06-.14-.1-.16a7.53,7.53,0,0,0-.71-.27,4,4,0,0,0-1.8-.15,1.9,1.9,0,0,0-.26.11c-.08,0-.2.08-.26,0A5.3,5.3,0,0,0,143.81,9a10.67,10.67,0,0,1-1.66-.14,1.55,1.55,0,0,0-1.45.26l-.43-.21a1.69,1.69,0,0,0-1.33-.11,3,3,0,0,1-1.64.06c-.34-.05-.71-.27-1.07,0,0,0-.12,0-.17,0a2.15,2.15,0,0,0-1.44,0,.81.81,0,0,1-.57-.09A1.9,1.9,0,0,0,133,8.48l-1.76.06c-.53,0-1.06-.23-1.58.07-.48-.25-1,0-1.47-.09a.71.71,0,0,0-.71.21c-.19.21-.4.18-.65,0a1.31,1.31,0,0,0-.91-.21c-.13,0-.29-.13-.43-.13-.53,0-1.06,0-1.59,0a5.09,5.09,0,0,1-.57.07.88.88,0,0,0-.77.2,7,7,0,0,0-1.5-.15c-.5.06-1-.17-1.49.14a.12.12,0,0,1-.11,0c-.38-.32-.76,0-1.14,0l-.58,0c-.06,0-.13-.06-.17,0a2.75,2.75,0,0,1-1.41,0,6.58,6.58,0,0,0-1.6.25.53.53,0,0,1-.28,0,4.42,4.42,0,0,0-2-.14c-.69,0-1.36.12-2.05.12h-1.28a8.14,8.14,0,0,0-2,.23,4.69,4.69,0,0,1-.93.12c-.31,0-.65-.18-1,.12-.08.08-.36-.06-.59-.11,0,.26-.28.47,0,.64-.18.09-.39.17-.58.28a1.81,1.81,0,0,1-1,.2c-.2,0-.34-.12-.32-.4,0-.55,0-.62-.59-.6s-1,.07-1.54.1-.7.16-.69.61c-.46.14-.54-.27-.75-.49-.67.09-1.36-.11-2,.24A1.32,1.32,0,0,0,96,10c-.11,0-.26.09-.29.18-.12.34-.44.42-.69.59a.66.66,0,0,1-.87,0c-.05-.61-.06-.57-.68-.67a2.14,2.14,0,0,0-1.21.14,1.31,1.31,0,0,1-.61.06,3.09,3.09,0,0,0-1,.2c-.08,0-.12.18-.16.29s-.1.28-.15.45L89.72,11h0v-.76c-.55.07-1.06.1-1.56.21-.2,0-.37.25-.59.42a7.65,7.65,0,0,0-2.91,0,.76.76,0,0,1-.23,0c-.5,0-.5,0-.51.43a1.52,1.52,0,0,1-.06.26l-.65-.34a2.49,2.49,0,0,0-1.66,0,1,1,0,0,1-.92-.24,3.51,3.51,0,0,1-.23.45.53.53,0,0,1-.67.24,2.21,2.21,0,0,0-.34-.06,1.36,1.36,0,0,0-1.09.15,1.07,1.07,0,0,1-.64,0,11.47,11.47,0,0,0-1.86-.07.18.18,0,0,0-.11,0c-.37.34-.86.23-1.3.3a2.26,2.26,0,0,0-1.48.78,1.53,1.53,0,0,0-1.68-.39c-.29.24-.49.42-.7.58a.56.56,0,0,1-.64,0,2.82,2.82,0,0,0-1.19-.2,12.42,12.42,0,0,0-1.75.2,9.29,9.29,0,0,0-1.89.42,2,2,0,0,1-1.23.11c-.29-.06-.61-.2-.54.34,0,.06-.22.18-.36.23s-.19-.05-.27-.11a1.17,1.17,0,0,0-1.41.07,1.58,1.58,0,0,1-.77.23c-.5,0-1,.13-1.51.19l-.95.09a9.4,9.4,0,0,0-2.52.37.9.9,0,0,0-.6.42.68.68,0,0,1-.34.32c-.35.12-.44.35-.27.75a7.1,7.1,0,0,0-2.39-.7l0,.49c-.23.08-.54-.23-.66.18a1.1,1.1,0,0,1-.36-.16,1.05,1.05,0,0,0-1-.31c-.72.11-1.47.08-2.17.25a7.42,7.42,0,0,0-2.71.87,1.83,1.83,0,0,0-.25.16.75.75,0,0,1-1,.23,2.06,2.06,0,0,0-.86,0c-.57.08-1.13.23-1.69.33-.23,0-.47,0-.7,0a8.13,8.13,0,0,0-1.14.29c-.67.23-1.38.28-2.06.45-1.18.29-2.36.58-3.54.93a8.09,8.09,0,0,0-1.17.48,6.55,6.55,0,0,1-1.59.3c-.66.13-1.32.26-2,.35a3.62,3.62,0,0,1-.77-.06l-1,.74a1.92,1.92,0,0,0-1.15,0,16.27,16.27,0,0,1-2.11.72c-.29.09-.62-.05-.9.16a3.46,3.46,0,0,1-1.57.54,8.26,8.26,0,0,1-1.17.18.53.53,0,0,0-.33.09,2.46,2.46,0,0,1-1.24.49l-1.91.57c-.15,0-.28.14-.43.2a1.78,1.78,0,0,1-.66.23,4.14,4.14,0,0,0-1.34.41c-.46.13-.87.49-1.33.6a4.15,4.15,0,0,0-1.83.86,2.67,2.67,0,0,1-.71.29l-1.4.6c-.16.07-.32.13-.47.2L8,27.83c.29.65.17,1-.45,1.19a2.57,2.57,0,0,0-1.4,1,3.65,3.65,0,0,0-.19.53,1,1,0,0,1-.23.39,1.36,1.36,0,0,0-.28,1.7,4.76,4.76,0,0,0,1.16,1.78,4.59,4.59,0,0,1,1.19,1.83,7.4,7.4,0,0,0,.48,1.19,1.7,1.7,0,0,1,.2,1.14,12.07,12.07,0,0,0,0,1.62l-.59-.17a2.2,2.2,0,0,0-.56-.19.78.78,0,0,1-.76-.56,2,2,0,0,0-.72-1c-.24-.17-.36-.51-.55-.76a1.32,1.32,0,0,0-.35-.39,1.81,1.81,0,0,1-.68-.73c-.13-.22-.31-.41-.46-.62s-.24-.4-.36-.59c-.3-.46-.61-.92-.9-1.39a2.17,2.17,0,0,1-.2-.55c-.17-.61-.35-1.22-.49-1.84a6.27,6.27,0,0,1,.26-4.24,12.8,12.8,0,0,0,.48-1.41,1.89,1.89,0,0,1,.3-.48,6.68,6.68,0,0,1,2.05-1.71A10.09,10.09,0,0,1,6.37,23c.13,0,.27-.07.39-.13a10.76,10.76,0,0,1,1.49-.68c.33-.09.67-.13,1-.23a10.59,10.59,0,0,0,1.7-.68c.33-.16.7-.23,1-.37.64-.25,1.32-.38,2-.58a3.91,3.91,0,0,0,.82-.32c.56-.32,1.28-.23,1.8-.67.06-.06.19,0,.29-.05a1.19,1.19,0,0,0,.4-.1,6.11,6.11,0,0,1,2.14-.54,3.74,3.74,0,0,0,1.71-.57c.06-.05.18,0,.27-.07A.68.68,0,0,0,21.7,18c.61-.55,1.41-.35,2.11-.55a12.31,12.31,0,0,0,2.4-.77l.6-.29a1.08,1.08,0,0,1,.81-.09.68.68,0,0,0,.67,0c.26-.19.52,0,.67.23L30,15.8l.32.28.06,0-.16-.27.45-.2c.05,0,.13-.07.15-.06.58.38,1-.15,1.52-.23.16,0,.32-.1.48-.14s.23,0,.29,0c.36-.31.8-.25,1.22-.33.08,0,.19,0,.22-.07.24-.42.58-.26.93-.22a1.73,1.73,0,0,0,.63-.06,1.66,1.66,0,0,1,1.39.1l-.16-.5.65-.17c.13.18.23.44.37.47s.35-.17.57-.29l0,.26c.47,0,.47,0,.56-.57l1.69-.4.09.38h.45l-.08-.38c.1,0,.23,0,.27,0,.43.45.89.26,1.36.09l.15,0,.07-.55a5.55,5.55,0,0,0,.54.5c.22.15.4,0,.63-.12l-.53-.38c.52-.15.94-.29,1.38-.37a.61.61,0,0,1,.41.17.42.42,0,0,0,.54.09.31.31,0,0,1,.22,0c.68.22,1.3-.15,2-.17L48.52,12l1.83-.33.15.43c.08,0,.16,0,.19,0a1.67,1.67,0,0,0,.2-.29c.15-.28.26-.62.69-.41.35-.21.7,0,1.05,0a2,2,0,0,0,.55-.17l.28.4.71-.07L53.61,11c.35-.2.58-.46,1-.44s.7,0,1,0,.52,0,1.09-.23a8.65,8.65,0,0,1,1.1-.23c.22,0,.44-.15.66-.18a8.77,8.77,0,0,1,.94,0l.17-.33.85.47c.22-.26.55,0,.86.06l0-.12-.49-.38a1.77,1.77,0,0,1,.36-.17c.4-.08.82-.1,1.21-.21a10.18,10.18,0,0,0,1.26-.26,1.3,1.3,0,0,1,.67-.12c.44.07.93-.15,1.34.25l-1.17.31.12.36c.25-.1.41-.31.72-.13a.55.55,0,0,0,.72-.4c-.09-.17-.4-.39.05-.65l.11.65c.2.09.4.24.61-.1L66.37,9a2.24,2.24,0,0,1,.68-.19c.12,0,.23.22.39.38l.35-.09c-.1-.52.08-.59,1-.4l-.3.28c.17.09.36.28.53.26a4.09,4.09,0,0,0,1-.29c.13,0,.2-.26.4-.11,0,0,.2,0,.24-.1A1.79,1.79,0,0,1,71.83,8a1,1,0,0,1,.74,0c.14.05.34,0,.52-.07.19.16.14.46.46.57a1.15,1.15,0,0,0,.9.06,3.44,3.44,0,0,1,.7-.09c.21,0,.41-.12.61-.16a2.58,2.58,0,0,0,.59-.1,6.16,6.16,0,0,0,.75-.51,2.34,2.34,0,0,0,2.63.07c0-.16.07-.4.14-.41.23,0,.33-.35.63-.25a4,4,0,0,0,.69.08.45.45,0,0,1,.27.11,1.31,1.31,0,0,0,1.25.38c.15,0,.31.06.47.06s.34.1.44-.16c0-.09.26-.09.4-.15a.79.79,0,0,0,.17-.14h0c.05,0,.1-.08.15-.08.77,0,1.55,0,2.32,0a8.36,8.36,0,0,0,1.42-.16c.15,0,.27-.24.41-.37l.44.34c0-.35-.46-.57-.08-.81s.59-.06.89.14l-.34.29c0,.07.06.12.09.12.25,0,.5,0,.75,0a8.88,8.88,0,0,0,2.05-.14,6.32,6.32,0,0,1,1.89-.14,3,3,0,0,0,.9-.1,11.25,11.25,0,0,0,2.5-.22.39.39,0,0,1,.28,0,1.43,1.43,0,0,0,1.21,0,4,4,0,0,1,1.67-.1A2.14,2.14,0,0,0,101.4,6a5.38,5.38,0,0,0,.61-.19c.5-.2,1,.08,1.51,0s.9.22,1.36.19,1,.21,1.51,0c.21-.09.5,0,.79,0v-1a2.16,2.16,0,0,1,1.41,0c.07,0,.19,0,.23,0,.46-.4.78,0,1.28.15l-.47.31,1.25.25a1.15,1.15,0,0,1,.92-.63c.46-.52,1.13-.23,1.68-.42a1.51,1.51,0,0,1,1-.16c.37.13.47.25.38.67a4.54,4.54,0,0,0,.76.32,3.32,3.32,0,0,0,.73,0l.07-.57.36.53h1.45a.55.55,0,0,0,.6-.4l.81.1-.24-.5.62-.06-.22.55a1.11,1.11,0,0,0,1.46.27,2.2,2.2,0,0,1,.67-.18,3.31,3.31,0,0,1,.53,0c.11-.36-.2-.4-.37-.53Zm-17,3.57c.21.17.4.08.7,0-.33-.27-.51,0-.71.05-.48-.49-.59-.51-.89-.1a.44.44,0,0,0,.57.14A1.37,1.37,0,0,1,105.11,8.18ZM148.83,6.8c-.25-.12-.25-.12-.37.19l.38-.21c.06.07.11.19.19.21s.3,0,.44.06.5.17.78.26c0-.11,0-.16,0-.19C149.85,6.65,149.33,6.78,148.83,6.8ZM143.27,8c.55.43,1.15.24,1.76.15-.13-.16-.31-.36-.43-.33-.45.12-1-.2-1.35.2a1.8,1.8,0,0,0-1.06-.25c-.68,0-1.35-.37-2,0a.31.31,0,0,1-.23,0,2.13,2.13,0,0,0-1.36-.18,7.18,7.18,0,0,1-1.15,0c.17.4.2.43.5.36a1.5,1.5,0,0,1,1.28.2.41.41,0,0,0,.59,0A.32.32,0,0,1,140,8c.49,0,1,.07,1.46.07S142.68,8.37,143.27,8Zm21.5,1.67a5,5,0,0,0-1.94-.32c-.2,0-.39,0-.59,0l-1.75-.2A8.71,8.71,0,0,1,159,8.92a6.47,6.47,0,0,0-2.16-.26,1.69,1.69,0,0,1-.65,0,2,2,0,0,0-1-.06,1.72,1.72,0,0,1-.36,0c-.57,0-1.13-.11-1.7-.15-.18,0-.29.1-.29.33.08,0,.17.15.24.13.59-.12,1.12.21,1.73.15a9.28,9.28,0,0,1,2.06.22,4.74,4.74,0,0,0,1.35.16,6.55,6.55,0,0,1,2.33.12c.86.15,1.71.28,2.57.39.17,0,.37.1.51,0a.85.85,0,0,1,.68,0C164.51,10.11,164.68,10,164.78,9.71Zm-30.91-2c-.18-.11-.28-.22-.4-.23a11.18,11.18,0,0,0-1.4-.17c-1.17,0-2.33,0-3.5,0l-1,0a4.93,4.93,0,0,0-1.32.11,5.59,5.59,0,0,1-1.28,0,1.53,1.53,0,0,0-.52.08c-.11,0-.26.17-.26.25a.55.55,0,0,0,.21.37.7.7,0,0,0,.79,0,1,1,0,0,1,.49-.16c1,.11,2-.15,3.08-.14l1.17,0a5.56,5.56,0,0,1,1.11,0,7.41,7.41,0,0,0,1.34.06A3.52,3.52,0,0,0,133.87,7.72Zm48,5.1c.37.12.73.26,1.1.36a8.48,8.48,0,0,0,1.1.23,6.87,6.87,0,0,0,1.95.33c.05,0,.11,0,.17.06a5,5,0,0,0,2,.43c.19,0,.39.11.59.17s.68.21,1,.3.35-.1.32-.34a3.83,3.83,0,0,0-.59-.39,2.47,2.47,0,0,0-.69-.16,6.78,6.78,0,0,1-.81,0,12.38,12.38,0,0,1-2.74-.75,1.07,1.07,0,0,0-.68,0,.92.92,0,0,1-.9-.14.74.74,0,0,0-.37-.15c-.38,0-.76,0-1.14-.08C182,12.61,181.85,12.65,181.82,12.82Zm-.53-.22.07-.11c-.18-.12-.38-.36-.55-.34a11.55,11.55,0,0,1-2-.26c-.27,0-.54-.08-.82-.11a1.22,1.22,0,0,1-.49-.12,3,3,0,0,0-1-.33c-.59-.07-1.22.16-1.78-.17a2.58,2.58,0,0,0-.44-.17.56.56,0,0,0-.65.12c.3.39.3.38.66.38a2.14,2.14,0,0,1,.39.05c.64.12,1.25.52,1.94.28a.2.2,0,0,1,.16,0c.47.4,1.09.22,1.62.42a10,10,0,0,0,1.67.35,4.28,4.28,0,0,0,.75.06A3.21,3.21,0,0,0,181.29,12.6ZM110.41,7.72a.87.87,0,0,0,.8.33,5,5,0,0,1,.94.08c.4.07.79.25,1.17-.06a.32.32,0,0,1,.23,0c.52.11,1.06-.1,1.57,0a.78.78,0,0,0,.71-.15c.1-.07.28,0,.43,0,.32,0,.63.26,1,.05-.28-.51-.44-.57-1.07-.49a6.27,6.27,0,0,1-1.4.11A30.72,30.72,0,0,0,110.41,7.72Zm-6.56.57c-.08-.1-.12-.18-.16-.18A4.18,4.18,0,0,0,102.11,8a2.44,2.44,0,0,1-.87.08,5,5,0,0,0-1.71.1l-1,.21a1,1,0,0,0,1,.21,7.32,7.32,0,0,1,1.75-.09,8.6,8.6,0,0,0,1.13,0,1,1,0,0,1,.63,0C103.36,8.61,103.59,8.48,103.85,8.29Zm62.54,1.79a.85.85,0,0,0,.94.44.85.85,0,0,1,.61.13,1.72,1.72,0,0,0,.66.17,4.9,4.9,0,0,0,.88,0,1,1,0,0,0,.31-.15l-1.09-.71a.5.5,0,0,0-.65,0c-.15.15-.24.1-.4.09C167.26,10,166.86,9.79,166.39,10.08Zm-17.51-2a1.43,1.43,0,0,0,2,.58l.46.41.71-.43c-.71-.21-1.28-.43-1.88-.55A6.58,6.58,0,0,0,148.89,8.08Zm3.18-.94a4.32,4.32,0,0,0,.55.46c.18.1.42.24.59.19a6.19,6.19,0,0,0,1-.47c-.25-.43-.68-.37-1-.44A1.31,1.31,0,0,0,152.07,7.14ZM196.28,16l0,.13c.41.15.82.32,1.23.46s.88.24,1.31.36l.08-.14c-.22-.17-.26-.5-.62-.54a2.42,2.42,0,0,1-.91-.17A1.81,1.81,0,0,0,196.28,16ZM148.53,8.33a.84.84,0,0,0-.9-.35,1.15,1.15,0,0,1-.95-.07c-.26-.11-.35,0-.46.21A2.61,2.61,0,0,0,148.53,8.33Zm27.63,2a1.28,1.28,0,0,0,1.7.24C177.65,9.95,177.51,9.93,176.16,10.37ZM104.74,6.59a1.46,1.46,0,0,0,2,0A2.53,2.53,0,0,0,104.74,6.59Zm-3.83.47c.59.1,1.13.68,1.7-.13-.25-.13-.46-.33-.67-.32A1.05,1.05,0,0,0,100.91,7.06ZM84.28,9.78a1.36,1.36,0,0,0,2-.41C85.57,9.57,84.85,9.27,84.28,9.78Zm-32,4-.06.59c.78.27,1.07.18,1.41-.44Zm54.27-5.63a1.89,1.89,0,0,0,.65.12,4,4,0,0,1,1.55-.09A1.87,1.87,0,0,0,106.52,8.15ZM81.85,10.21c-.54-.51-1-.52-1.48,0l1,.35Zm54-2.58a1.49,1.49,0,0,0,.9.41,1.62,1.62,0,0,0,.47-.16C136.62,7.28,136.62,7.28,135.8,7.63ZM193.4,15c-.36,0-.57,0-.78-.06s-.39-.08-.58-.12l-.57-.09a2.36,2.36,0,0,0,1.65.59C193.19,15.32,193.23,15.2,193.4,15Zm-5.52,30.2c.17-.61.13-.69-.42-1l-.19.13c-.27.23-.26.39,0,.56ZM168.57,51l.43.36.71-.67C169.24,50.5,169,50.56,168.57,51ZM172,10.81c.3.57.66.67,1.27.32A1.63,1.63,0,0,0,172,10.81ZM63.9,12.5c-.19-.18-.37-.41-.69-.28a.41.41,0,0,0-.21.31c0,.25.18.37.42.38Zm142.56,7.23c1,.54,1,.54,1.22.34a1.11,1.11,0,0,0-1-.54C206.63,19.53,206.56,19.64,206.46,19.74ZM120.72,6.12l.11.13c.36-.17.82.16,1.24-.3-.45,0-.79-.09-1.14-.09C120.86,5.86,120.79,6,120.72,6.12Zm.59,1.37a.7.7,0,0,0,.71.29c.23,0,.43,0,.48-.31C122.11,7.29,122.11,7.29,121.3,7.5Zm-32.7.63a1.68,1.68,0,0,0,.58.07c.19,0,.5,0,.56-.31A.84.84,0,0,0,88.6,8.13ZM58.31,10.66a1.89,1.89,0,0,0-1.27.09c.31.46.73,0,1.09.11C58.16,10.87,58.24,10.74,58.31,10.66ZM165.78,51.93c-.41-.39-.62-.33-.78.25A.67.67,0,0,0,165.78,51.93Zm12.88-3.69.4.55.67-.34Zm-13.11,1.85c.06-.54.06-.54-.4-.61V50Zm2.68-.76c.35.34.53.1.74-.11C168.66,48.91,168.66,48.91,168.23,49.34ZM132.11,5.87l-.23.43c.33-.07.56.17.91-.07Zm-70.38,4c0,.29.15.41.35.36a.29.29,0,0,0,.23-.43Zm69.41-3.58.74-.29c-.36-.15-.6-.2-.81,0C131,6.09,131.1,6.22,131.13,6.33Zm16.27.57,0-.18-.71.12C147,7.07,147.21,7.19,147.4,6.89ZM90,9.15h-.6l.09.52Zm33.84-1.39c-.45-.2-.45-.2-.69.08C123.39,7.93,123.62,8,123.82,7.75ZM71.19,9c.28.06.34-.13.34-.33s-.15-.11-.28-.19Zm55-4.18c.16.42.16.42.46.18ZM68.52,11.38l-.11.1c0,.21.07.44.51.35ZM121,7.65c-.21-.14-.36-.29-.58,0C120.58,7.71,120.69,8,121,7.65ZM94.74,8.91c-.09-.38-.09-.38-.49-.2Zm53,44.17a1.83,1.83,0,0,0-.29-.2s-.14.14-.13.15a.68.68,0,0,0,.22.2S147.61,53.14,147.7,53.07Zm31.61-6.93-.15.41c.07,0,.15.07.2.05S179.53,46.38,179.31,46.14ZM182,48l-.06-.1a1.06,1.06,0,0,0-.29.13s0,.15.08.31ZM93.68,8.73l0,.13c.15,0,.31.1.43-.2Zm90.61,1.8.15.12.2-.28s-.13-.1-.13-.09A3.12,3.12,0,0,0,184.29,10.53Zm5,33.09c-.14.39-.14.39.23.63Zm1.59-29v-.1l-.36-.08c0,.12.09.18.16.2S190.83,14.61,190.89,14.6Zm-154.78.19-.05-.1-.35.16.06.11ZM176.79,47.5l.09-.12-.26-.17-.07.09Zm14.57-4.45-.1.12.28.23.09-.1Zm2.16-.48-.07-.1-.34.22.1.13ZM206,19.31a1.82,1.82,0,0,0-.19-.21.3.3,0,0,0-.12.09.78.78,0,0,0,.14.21S205.94,19.35,206,19.31ZM63.13,9.68c-.06.1-.12.16-.13.22a.7.7,0,0,0,0,.22C63.3,10,63.28,9.89,63.13,9.68ZM163.51,8.4c0-.12,0-.17,0-.19a.49.49,0,0,0-.13-.08ZM195.6,42.34l.09-.11-.26-.2-.07.09Z" transform="translate(-1.56 -4.09)"/><path d="M183.8,56.61a1.45,1.45,0,0,1,.91-1.44,4.84,4.84,0,0,0,.91-.44.45.45,0,0,1,.6.05,2.94,2.94,0,0,1,1.15,1.55,1.22,1.22,0,0,0,.45.72.55.55,0,0,0,.74.06,16.83,16.83,0,0,1,2.85-1.58,1.21,1.21,0,0,1,1.09-.06,4,4,0,0,1,2.06,1.62,1.57,1.57,0,0,0,1.42.74,1.61,1.61,0,0,1,.87.12,1,1,0,0,0,.56,0,2.15,2.15,0,0,1,.86,0,8.79,8.79,0,0,0,1.48,0c1,0,2-.3,3-.21a2.38,2.38,0,0,0,1.33-.18,1.09,1.09,0,0,1,.53,0,16.19,16.19,0,0,0,2.81-.2c.53-.05,1-.13,1.58-.16s1.18,0,1.77,0c.25,0,.5,0,.76,0l1.41.09a16.35,16.35,0,0,1,3.08.52,1.81,1.81,0,0,0,1.16-.07,3,3,0,0,1,1.55-.19c.57,0,1.14.08,1.72.11a1.55,1.55,0,0,0,.32-.05,1.1,1.1,0,0,1,.41-.06,5.69,5.69,0,0,0,1.38,0,8.12,8.12,0,0,1,2,.23,13.07,13.07,0,0,0,1.41.43c.7.11,1.42.12,2.14.16l1.17,0c1.2.06,2.42,0,3.61.22a9.83,9.83,0,0,0,2,0c.21,0,.42.13.66.14.73,0,1.46.18,2.19.27a.51.51,0,0,1,.46.48.73.73,0,0,0,.41.61.49.49,0,0,1,.28.58c0,.2-.45.53-.64.47a.74.74,0,0,0-.8.25,3.24,3.24,0,0,1-1.76.61c-.34.06-.54.11-.6.5a.55.55,0,0,1-.61.45c-.64,0-1.28-.05-1.92-.06-.27,0-.55,0-.82,0l-3.91.07a.24.24,0,0,0-.12,0,4.41,4.41,0,0,1-2.3.35c-.33,0-.68.29-1,0a3.53,3.53,0,0,1-1.47.23,17.29,17.29,0,0,1-1.91.07c-.39,0-.66.26-1,.25a2.69,2.69,0,0,0-1,0,2.41,2.41,0,0,1-.57,0c-.12,0-.28,0-.35.05-.35.35-.81.23-1.21.33a.3.3,0,0,1-.22,0c-.64-.52-1.51-.39-2.19-.79-.59.16-1.05-.28-1.6-.31a10.92,10.92,0,0,1-1.61,0,2.4,2.4,0,0,0-1.19.1,1.07,1.07,0,0,1-.41,0,2.79,2.79,0,0,0-1.28.11,11.36,11.36,0,0,1-2.61.23c-.69.06-1.39,0-2.08,0-.37,0-.74.12-1.11.16l-4.46.5c-.52.38-1.16.1-1.69.3-.18.24,0,.62-.35.73-.57-.66-.57-.66-1.28-.42-.48-.32-1-.62-1.4-1a4.15,4.15,0,0,1-.53-.63l-.84-1a11.31,11.31,0,0,1-1.23.4,1,1,0,0,0-.75.44c-.24.51-.73.57-1.14.77-.18.09-.38.1-.45.33a.21.21,0,0,1-.12.12,2.18,2.18,0,0,1-.57.12c-.48,0-1,.39-1.42-.13-.23-.29-.59-.16-.83-.13a3.2,3.2,0,0,0-1.09.26c-.2.1-.31.16-.35.39s-.16.23-.21.3c-.42-.24-.78-.43-1.13-.64-.12-.07-.27-.18-.29-.28-.08-.47-.43-.75-.68-1.1a1.47,1.47,0,0,1-.32-1.49,3.23,3.23,0,0,0,.12-1.5c0-.34.15-.52.26-.74.2-.39.22-.91.74-1.09a.88.88,0,0,1,.62-.64.34.34,0,0,0,.13-.31C183.09,56.95,183.48,56.81,183.8,56.61Z" transform="translate(-1.56 -4.09)"/><path d="M167.72,7l.11.37-.74.08C167.05,7.1,167.05,7.1,167.72,7Z" transform="translate(-1.56 -4.09)"/><path d="M116.3,9l.39.28-.3.36c-.06,0-.12,0-.13,0C116.07,9.45,116,9.25,116.3,9Z" transform="translate(-1.56 -4.09)"/><path d="M172.26,8.15l-.86-.21C171.75,7.59,172.12,7.68,172.26,8.15Z" transform="translate(-1.56 -4.09)"/><path d="M10,27.46c.55-.32.55-.32.79-.06C10.58,27.47,10.39,27.73,10,27.46Z" transform="translate(-1.56 -4.09)"/><path d="M89.72,11c-.21.1-.42.23-.64,0l.18-.31.47.36Z" transform="translate(-1.56 -4.09)"/><path d="M81.06,11.49l0,.55-.53-.24Z" transform="translate(-1.56 -4.09)"/><path d="M122.12,4.61l-.25.11c-.24.11-.35,0-.45-.32l.7.2Z" transform="translate(-1.56 -4.09)"/><path d="M120.19,4.61c.27-.16.41-.1.54.07C120.54,4.88,120.4,4.8,120.19,4.61Z" transform="translate(-1.56 -4.09)"/><path d="M84.18,7.26l-.4-.3c.1,0,.22-.12.3-.09s.17.24.09.4Z" transform="translate(-1.56 -4.09)"/><path d="M86,6.8l-.55,0C85.59,6.69,85.72,6.57,86,6.8Z" transform="translate(-1.56 -4.09)"/><path d="M75.63,7.65l.43.23C75.75,8,75.65,7.9,75.63,7.65Z" transform="translate(-1.56 -4.09)"/><path d="M156.3,54.16l.22-.16s.08.12.07.13a1.46,1.46,0,0,1-.2.14Z" transform="translate(-1.56 -4.09)"/><path d="M102.4,5.28l-.16.18-.07-.06.13-.21Z" transform="translate(-1.56 -4.09)"/><path class="cls-1" d="M164.78,9.71c-.1.33-.27.4-.52.29a.85.85,0,0,0-.68,0c-.14.06-.34,0-.51,0-.86-.11-1.72-.24-2.57-.39a6.55,6.55,0,0,0-2.33-.12,4.74,4.74,0,0,1-1.35-.16,9.28,9.28,0,0,0-2.06-.22c-.61.06-1.14-.27-1.73-.15-.07,0-.16-.09-.24-.13,0-.23.11-.34.29-.33.57,0,1.14.1,1.7.15a1.72,1.72,0,0,0,.36,0,2,2,0,0,1,1,.06,1.69,1.69,0,0,0,.65,0,6.47,6.47,0,0,1,2.16.26,8.71,8.71,0,0,0,1.52.22l1.75.2c.2,0,.39,0,.59,0A5,5,0,0,1,164.78,9.71Z" transform="translate(-1.56 -4.09)"/><path class="cls-1" d="M133.87,7.72a3.52,3.52,0,0,1-1.49.15A7.41,7.41,0,0,1,131,7.82a5.56,5.56,0,0,0-1.11,0l-1.17,0c-1,0-2,.24-3.08.14a1,1,0,0,0-.49.16.7.7,0,0,1-.79,0,.55.55,0,0,1-.21-.37c0-.08.15-.21.26-.25a1.53,1.53,0,0,1,.52-.08,5.59,5.59,0,0,0,1.28,0,4.93,4.93,0,0,1,1.32-.11l1,0c1.17,0,2.33,0,3.5,0a11.18,11.18,0,0,1,1.4.17C133.59,7.51,133.69,7.61,133.87,7.72Z" transform="translate(-1.56 -4.09)"/><path class="cls-1" d="M181.82,12.82c0-.18.14-.21.34-.19.38,0,.76,0,1.14.08a.74.74,0,0,1,.37.15.92.92,0,0,0,.9.14,1.07,1.07,0,0,1,.68,0,12.38,12.38,0,0,0,2.74.75,6.78,6.78,0,0,0,.81,0,2.47,2.47,0,0,1,.69.16,3.83,3.83,0,0,1,.59.39c0,.24,0,.41-.32.34s-.69-.19-1-.3-.4-.2-.59-.17a5,5,0,0,1-2-.43c-.06,0-.12-.06-.17-.06a6.87,6.87,0,0,1-1.95-.33,8.48,8.48,0,0,1-1.1-.23C182.55,13.08,182.19,12.95,181.82,12.82Z" transform="translate(-1.56 -4.09)"/><path class="cls-1" d="M181.29,12.6a3.21,3.21,0,0,1-.52.08,4.28,4.28,0,0,1-.75-.06,10,10,0,0,1-1.67-.35c-.53-.19-1.15,0-1.62-.42a.2.2,0,0,0-.16,0c-.7.24-1.3-.16-1.94-.28a2.14,2.14,0,0,0-.39-.05c-.36,0-.36,0-.66-.38a.56.56,0,0,1,.65-.12,2.58,2.58,0,0,1,.44.17c.57.33,1.19.1,1.78.17a3,3,0,0,1,1,.33,1.22,1.22,0,0,0,.49.12c.27,0,.54.08.82.11a11.55,11.55,0,0,0,2,.26c.17,0,.36.22.55.34Z" transform="translate(-1.56 -4.09)"/><path class="cls-1" d="M110.41,7.72a30.72,30.72,0,0,1,4.33-.17,6.27,6.27,0,0,0,1.4-.11c.63-.08.79,0,1.07.49-.34.21-.65-.06-1-.05-.14,0-.32,0-.43,0a.78.78,0,0,1-.71.15c-.51-.12-1,.09-1.57,0a.32.32,0,0,0-.23,0c-.38.32-.78.13-1.17.06a5,5,0,0,0-.94-.08A.87.87,0,0,1,110.41,7.72Z" transform="translate(-1.56 -4.09)"/><path class="cls-1" d="M103.85,8.29c-.26.19-.49.32-.75.2a1,1,0,0,0-.63,0,8.6,8.6,0,0,1-1.13,0,7.32,7.32,0,0,0-1.75.09,1,1,0,0,1-1-.21l1-.21a5,5,0,0,1,1.71-.1,2.44,2.44,0,0,0,.87-.08,4.18,4.18,0,0,1,1.59.11S103.77,8.19,103.85,8.29Z" transform="translate(-1.56 -4.09)"/><path class="cls-1" d="M143.27,8c-.59.33-1.2.06-1.8.06S140.5,8,140,8a.32.32,0,0,0-.2.09.41.41,0,0,1-.59,0,1.5,1.5,0,0,0-1.28-.2c-.31.07-.34,0-.5-.36a7.18,7.18,0,0,0,1.15,0,2.13,2.13,0,0,1,1.36.18.31.31,0,0,0,.23,0c.68-.33,1.35.06,2,0a1.8,1.8,0,0,1,1.06.25Z" transform="translate(-1.56 -4.09)"/><path class="cls-1" d="M166.39,10.08c.46-.28.87-.07,1.26,0,.16,0,.26.06.4-.09a.5.5,0,0,1,.65,0l1.09.71a1,1,0,0,1-.31.15,4.9,4.9,0,0,1-.88,0,1.72,1.72,0,0,1-.66-.17.85.85,0,0,0-.61-.13A.85.85,0,0,1,166.39,10.08Z" transform="translate(-1.56 -4.09)"/><path class="cls-1" d="M148.89,8.08a6.58,6.58,0,0,1,1.24,0c.59.12,1.17.34,1.88.55l-.71.43-.46-.41A1.43,1.43,0,0,1,148.89,8.08Z" transform="translate(-1.56 -4.09)"/><path class="cls-1" d="M152.07,7.14a1.31,1.31,0,0,1,1.15-.27c.33.07.77,0,1,.44a6.19,6.19,0,0,1-1,.47c-.17,0-.41-.09-.59-.19A4.32,4.32,0,0,1,152.07,7.14Z" transform="translate(-1.56 -4.09)"/><path class="cls-1" d="M196.28,16a1.81,1.81,0,0,1,1.07.09,2.42,2.42,0,0,0,.91.17c.37,0,.4.37.62.54l-.08.14c-.44-.12-.88-.23-1.31-.36s-.82-.3-1.23-.46Z" transform="translate(-1.56 -4.09)"/><path class="cls-1" d="M148.53,8.33a2.61,2.61,0,0,1-2.31-.21c.11-.2.21-.32.46-.21a1.15,1.15,0,0,0,.95.07A.84.84,0,0,1,148.53,8.33Z" transform="translate(-1.56 -4.09)"/><path class="cls-1" d="M176.16,10.37c1.35-.44,1.49-.42,1.7.24A1.28,1.28,0,0,1,176.16,10.37Z" transform="translate(-1.56 -4.09)"/><path class="cls-1" d="M104.74,6.59a2.53,2.53,0,0,1,2,0A1.46,1.46,0,0,1,104.74,6.59Z" transform="translate(-1.56 -4.09)"/><path class="cls-1" d="M100.91,7.06a1.05,1.05,0,0,1,1-.45c.21,0,.42.19.67.32C102,7.74,101.51,7.16,100.91,7.06Z" transform="translate(-1.56 -4.09)"/><path class="cls-1" d="M84.28,9.78c.57-.52,1.29-.22,2-.41A1.36,1.36,0,0,1,84.28,9.78Z" transform="translate(-1.56 -4.09)"/><path class="cls-1" d="M52.25,13.77l1.34.15c-.33.62-.62.71-1.41.44Z" transform="translate(-1.56 -4.09)"/><path class="cls-1" d="M106.52,8.15a1.87,1.87,0,0,1,2.19,0,4,4,0,0,0-1.55.09A1.89,1.89,0,0,1,106.52,8.15Z" transform="translate(-1.56 -4.09)"/><path class="cls-1" d="M81.85,10.21l-.46.3-1-.35C80.81,9.69,81.31,9.7,81.85,10.21Z" transform="translate(-1.56 -4.09)"/><path class="cls-1" d="M143.26,8.06c.39-.41.91-.08,1.35-.2.12,0,.3.17.43.33-.62.1-1.22.28-1.76-.14Z" transform="translate(-1.56 -4.09)"/><path class="cls-1" d="M135.8,7.63c.82-.35.82-.35,1.37.25a1.62,1.62,0,0,1-.47.16A1.49,1.49,0,0,1,135.8,7.63Z" transform="translate(-1.56 -4.09)"/><path class="cls-1" d="M193.4,15c-.16.19-.21.31-.28.33a2.36,2.36,0,0,1-1.65-.59l.57.09c.19,0,.39.09.58.12S193,15,193.4,15Z" transform="translate(-1.56 -4.09)"/><path class="cls-1" d="M187.88,45.21l-.57-.3c-.3-.16-.31-.33,0-.56l.19-.13C188,44.51,188,44.6,187.88,45.21Z" transform="translate(-1.56 -4.09)"/><path class="cls-1" d="M168.57,51c.42-.43.68-.5,1.14-.31l-.71.67Z" transform="translate(-1.56 -4.09)"/><path class="cls-1" d="M172,10.81a1.63,1.63,0,0,1,1.27.32C172.69,11.49,172.33,11.38,172,10.81Z" transform="translate(-1.56 -4.09)"/><path class="cls-1" d="M63.9,12.5l-.47.4c-.24,0-.42-.13-.42-.38a.41.41,0,0,1,.21-.31C63.53,12.09,63.71,12.33,63.9,12.5Z" transform="translate(-1.56 -4.09)"/><path class="cls-1" d="M206.46,19.74c.1-.1.17-.21.23-.21a1.11,1.11,0,0,1,1,.54C207.45,20.27,207.45,20.27,206.46,19.74Z" transform="translate(-1.56 -4.09)"/><path class="cls-1" d="M120.72,6.12c.07-.09.14-.27.21-.27.35,0,.69.05,1.14.09-.42.46-.88.13-1.24.3Z" transform="translate(-1.56 -4.09)"/><path class="cls-1" d="M121.3,7.5c.81-.21.81-.21,1.19,0-.05.27-.25.31-.48.31A.7.7,0,0,1,121.3,7.5Z" transform="translate(-1.56 -4.09)"/><path class="cls-1" d="M88.6,8.13a.84.84,0,0,1,1.14-.24c-.06.34-.37.27-.56.31A1.68,1.68,0,0,1,88.6,8.13Z" transform="translate(-1.56 -4.09)"/><path class="cls-1" d="M148.83,6.8c.49,0,1-.15,1.38.34,0,0,0,.07,0,.19-.28-.1-.53-.19-.78-.26s-.3,0-.44-.06-.13-.14-.19-.21Z" transform="translate(-1.56 -4.09)"/><path class="cls-1" d="M58.31,10.66c-.07.09-.15.22-.18.21-.36-.13-.77.34-1.09-.11A1.89,1.89,0,0,1,58.31,10.66Z" transform="translate(-1.56 -4.09)"/><path class="cls-1" d="M165.78,51.93a.67.67,0,0,1-.78.25C165.16,51.6,165.38,51.54,165.78,51.93Z" transform="translate(-1.56 -4.09)"/><path class="cls-1" d="M105.11,8.18a1.28,1.28,0,0,0-.33.05.44.44,0,0,1-.57-.14c.29-.4.41-.39.89.1Z" transform="translate(-1.56 -4.09)"/><path class="cls-1" d="M178.66,48.25l1.06.21-.67.34Z" transform="translate(-1.56 -4.09)"/><path class="cls-1" d="M165.55,50.09l-.4-.09v-.51C165.61,49.56,165.61,49.56,165.55,50.09Z" transform="translate(-1.56 -4.09)"/><path class="cls-1" d="M168.23,49.34c.43-.42.43-.42.74-.11C168.77,49.44,168.58,49.68,168.23,49.34Z" transform="translate(-1.56 -4.09)"/><path class="cls-1" d="M132.11,5.87l.68.37c-.35.24-.58,0-.91.07Z" transform="translate(-1.56 -4.09)"/><path class="cls-1" d="M61.73,9.91l.59-.07a.29.29,0,0,1-.23.43C61.88,10.32,61.76,10.2,61.73,9.91Z" transform="translate(-1.56 -4.09)"/><path class="cls-1" d="M168.06,67.62c-.46.33-.46.33-.81,0,.28-.25.55,0,.81,0Z" transform="translate(-1.56 -4.09)"/><path class="cls-1" d="M131.13,6.33c0-.11-.1-.24-.07-.27.21-.22.44-.17.81,0Z" transform="translate(-1.56 -4.09)"/><path class="cls-1" d="M147.4,6.89c-.19.3-.4.18-.74-.06l.71-.12Z" transform="translate(-1.56 -4.09)"/><path class="cls-1" d="M90,9.15l-.51.52-.09-.52Z" transform="translate(-1.56 -4.09)"/><path class="cls-1" d="M123.82,7.75c-.21.25-.43.18-.69.08C123.37,7.55,123.37,7.55,123.82,7.75Z" transform="translate(-1.56 -4.09)"/><path class="cls-1" d="M71.19,9l.06-.52c.12.08.28.14.28.19S71.47,9,71.19,9Z" transform="translate(-1.56 -4.09)"/><path class="cls-1" d="M126.24,4.79l.46.18C126.39,5.21,126.39,5.21,126.24,4.79Z" transform="translate(-1.56 -4.09)"/><path class="cls-1" d="M68.52,11.38l.4.46c-.44.08-.47-.14-.51-.35Z" transform="translate(-1.56 -4.09)"/><path class="cls-1" d="M121,7.65c-.28.35-.39.06-.58,0C120.61,7.36,120.76,7.52,121,7.65Z" transform="translate(-1.56 -4.09)"/><path class="cls-1" d="M94.74,8.91l-.49-.2C94.65,8.53,94.65,8.53,94.74,8.91Z" transform="translate(-1.56 -4.09)"/><path class="cls-1" d="M147.7,53.07c-.09.07-.17.16-.2.15a.68.68,0,0,1-.22-.2s.11-.16.13-.15A1.83,1.83,0,0,1,147.7,53.07Z" transform="translate(-1.56 -4.09)"/><path class="cls-1" d="M179.31,46.14c.21.24.24.37.05.46s-.13,0-.2-.05Z" transform="translate(-1.56 -4.09)"/><path class="cls-1" d="M182,48l-.28.33c0-.15-.11-.28-.08-.31a1.06,1.06,0,0,1,.29-.13Z" transform="translate(-1.56 -4.09)"/><path class="cls-1" d="M105.09,8.2c.2-.07.38-.32.71-.05-.3.11-.49.2-.7,0Z" transform="translate(-1.56 -4.09)"/><path class="cls-1" d="M93.68,8.73l.45-.07c-.12.29-.29.21-.43.2Z" transform="translate(-1.56 -4.09)"/><path class="cls-1" d="M184.29,10.53a3.12,3.12,0,0,1,.22-.25s.09.06.13.09l-.2.28Z" transform="translate(-1.56 -4.09)"/><path class="cls-1" d="M189.3,43.61l.23.63C189.16,44,189.16,44,189.3,43.61Z" transform="translate(-1.56 -4.09)"/><path class="cls-1" d="M190.89,14.6c-.07,0-.14,0-.2,0s-.12-.09-.16-.2l.36.08Z" transform="translate(-1.56 -4.09)"/><path class="cls-1" d="M36.12,14.79l-.35.16-.06-.11.35-.16Z" transform="translate(-1.56 -4.09)"/><path class="cls-1" d="M148.85,6.78l-.38.21c.12-.31.12-.31.37-.2Z" transform="translate(-1.56 -4.09)"/><path class="cls-1" d="M176.79,47.5l-.24-.2.07-.09.26.17Z" transform="translate(-1.56 -4.09)"/><path class="cls-1" d="M191.36,43.05l.26.25-.09.1-.28-.23Z" transform="translate(-1.56 -4.09)"/><path class="cls-1" d="M193.52,42.57l-.32.26-.1-.13.34-.22Z" transform="translate(-1.56 -4.09)"/><path class="cls-1" d="M206,19.31c-.09,0-.16.1-.17.09a.78.78,0,0,1-.14-.21.3.3,0,0,1,.12-.09A1.82,1.82,0,0,1,206,19.31Z" transform="translate(-1.56 -4.09)"/><path class="cls-1" d="M63.13,9.68c.16.21.17.33-.08.44a.7.7,0,0,1,0-.22C63,9.83,63.06,9.78,63.13,9.68Z" transform="translate(-1.56 -4.09)"/><path class="cls-1" d="M163.51,8.4l-.13-.27a.49.49,0,0,1,.13.08S163.51,8.28,163.51,8.4Z" transform="translate(-1.56 -4.09)"/><path class="cls-1" d="M152.51,54.46c.1-.32.21,0,.3.08l-.31-.1Z" transform="translate(-1.56 -4.09)"/><path class="cls-1" d="M195.6,42.34l-.24-.22.07-.09.26.2Z" transform="translate(-1.56 -4.09)"/></svg>